<svg width="33" height="32" viewBox="0 0 33 32" fill="none" xmlns="http://www.w3.org/2000/svg">
<circle cx="16.3334" cy="16" r="16" fill="white"/>
<path d="M16.3328 4.80005C18.2616 4.80005 20.0773 5.28716 21.6619 6.14575L19.2556 8.552C18.3501 8.19637 17.3644 7.99927 16.3328 7.99927C11.915 7.99964 8.33313 11.5815 8.33276 15.9993C8.33276 18.6148 9.58909 20.9356 11.5349 22.3977L13.1853 23.0813L11.9607 26.0383L10.1208 25.2766L9.94995 25.2053L9.79858 25.0969C6.97635 23.0665 5.13354 19.7477 5.13354 15.9993C5.13391 9.81421 10.1477 4.80042 16.3328 4.80005ZM26.1863 10.6721C27.0448 12.2564 27.5328 14.0707 27.533 15.9993C27.533 19.7478 25.6903 23.0665 22.8679 25.0969L22.8503 25.1096L22.8328 25.1213L21.7126 25.8831L19.9138 23.2366L21.0125 22.4885C23.027 21.0327 24.3328 18.6685 24.3328 15.9993C24.3327 14.9681 24.1354 13.9835 23.78 13.0784L26.1863 10.6721Z" fill="#00896B"/>
<circle cx="16.3334" cy="16" r="3.19998" stroke="#00896B" stroke-width="3.20005"/>
<path d="M16.3336 20.8C19.8681 20.8003 22.733 23.6659 22.733 27.2004V30.6663C20.7729 31.5228 18.6085 32.0002 16.3326 32.0002C14.057 32.0002 11.8932 31.5227 9.93323 30.6663V27.2004C9.93323 23.6658 12.799 20.8 16.3336 20.8Z" fill="#00896B"/>
<path d="M29.1334 3.19995L19.5334 12.8" stroke="#00896B" stroke-width="3.20005" stroke-linejoin="round"/>
<path d="M27.5334 0V4.8H32.3334" stroke="#00896B" stroke-width="3.20005" stroke-linejoin="round"/>
</svg>
