<svg width="32" height="34" viewBox="0 0 32 34" fill="none" xmlns="http://www.w3.org/2000/svg">
<path d="M2.66663 28.9477V15.474C2.66663 13.6137 4.17472 12.1056 6.03505 12.1056H26.2456C28.1059 12.1056 29.614 13.6137 29.614 15.474V28.9477C29.614 30.808 28.1059 32.3161 26.2456 32.3161H6.03505C4.17472 32.3161 2.66663 30.808 2.66663 28.9477Z" fill="#2295F2" stroke="#2295F2" stroke-width="3.36842"/>
<circle cx="16.1403" cy="20.5268" r="3.36842" stroke="white" stroke-width="3.36842"/>
<path d="M9.40356 10.4214V8.73721C9.40356 5.01656 12.4198 2.00037 16.1404 2.00037V2.00037C19.8611 2.00037 22.8772 5.01656 22.8772 8.73721V10.4214" stroke="#1734CA" stroke-width="3.36842"/>
<path d="M16.1409 27.2639C18.9311 27.2642 21.1926 29.5263 21.1926 32.3167H11.0881C11.0881 29.5262 13.3504 27.2639 16.1409 27.2639Z" fill="white" stroke="white" stroke-width="3.36842"/>
</svg>
