<svg width="46" height="33" viewBox="0 0 46 33" fill="none" xmlns="http://www.w3.org/2000/svg">
<path d="M2.30005 25.3019V6.90189C2.30005 4.36137 4.35954 2.30188 6.90005 2.30188H39.1001C41.6406 2.30188 43.7001 4.36137 43.7001 6.90189V25.3019C43.7001 27.8424 41.6406 29.9019 39.1001 29.9019H6.90005C4.35954 29.9019 2.30005 27.8424 2.30005 25.3019Z" fill="white" stroke="white" stroke-width="4.60001"/>
<path d="M11.5 0.00195312V0.00195312C11.5 6.35323 6.35128 11.502 0 11.502V11.502" stroke="#060F21" stroke-width="4.60001"/>
<path d="M11.5 32.202V32.202C11.5 25.8507 6.35128 20.702 0 20.702V20.702" stroke="#060F21" stroke-width="4.60001"/>
<path d="M34.5 0.00195312V0.00195312C34.5 6.35323 39.6488 11.502 46.0001 11.502V11.502" stroke="#060F21" stroke-width="4.60001"/>
<path d="M34.5 32.202V32.202C34.5 25.8507 39.6488 20.702 46.0001 20.702V20.702" stroke="#060F21" stroke-width="4.60001"/>
<path d="M27.6001 11.502H20.7001C19.4298 11.502 18.4001 12.5317 18.4001 13.802V13.802C18.4001 15.0722 19.4298 16.102 20.7001 16.102H25.3001C26.5703 16.102 27.6001 17.1317 27.6001 18.402V18.402C27.6001 19.6722 26.5704 20.702 25.3001 20.702H18.4001" stroke="#060F21" stroke-width="4.60001" stroke-linecap="round" stroke-linejoin="round"/>
<line x1="23" y1="6.90198" x2="23" y2="25.302" stroke="#060F21" stroke-width="4.60001"/>
</svg>
