<svg width="30" height="32" viewBox="0 0 30 32" fill="none" xmlns="http://www.w3.org/2000/svg">
<path d="M2 24.7699V16.9415C2 15.1466 3.45507 13.6915 5.25 13.6915H24.2226C26.0175 13.6915 27.4726 15.1466 27.4726 16.9415V24.7699C27.4726 26.5648 26.0175 28.0199 24.2226 28.0199H5.25C3.45507 28.0199 2 26.5648 2 24.7699Z" fill="#1734CA" stroke="#1734CA" stroke-width="3.25"/>
<circle cx="14.6568" cy="4.77612" r="3.15112" stroke="#04C7F1" stroke-width="3.25"/>
<path d="M14.577 18.3551C11.9685 18.3551 9.85266 16.2494 9.83481 13.6451L19.3192 13.6451C19.3013 16.2494 17.1855 18.3551 14.577 18.3551Z" fill="#04C7F1" stroke="#04C7F1" stroke-width="3.25"/>
<rect x="5.26379" y="26.1095" width="7.96019" height="5.89054" rx="1.625" fill="#1734CA"/>
<rect x="16.2488" y="26.0298" width="7.96019" height="5.89054" rx="1.625" fill="#1734CA"/>
</svg>
