<svg width="46" height="46" viewBox="0 0 46 46" fill="none" xmlns="http://www.w3.org/2000/svg">
<path d="M46 22.9863C45.9758 19.3302 43.1114 16.356 39.5038 16.1621C40.6703 14.8632 41.2599 13.225 41.2599 11.582C41.2422 9.84041 40.5911 8.06329 39.255 6.72721C36.6523 4.15847 32.5246 4.08092 29.8363 6.49619C29.7426 4.75299 29.001 3.17782 27.8394 2.01461C26.5955 0.794858 24.8781 0 22.9879 0C19.3319 0.0242335 16.3576 2.88863 16.1637 6.49619C14.8648 5.32975 13.2266 4.74007 11.5836 4.74007C9.84204 4.75784 8.06491 5.40891 6.72722 6.74499C4.15847 9.34766 4.08093 13.4754 6.4962 16.1637C2.88864 16.3576 0.0242335 19.3302 0 22.9879C0 24.8781 0.796469 26.5954 2.01461 27.8394C3.1762 29.001 4.75301 29.7426 6.4962 29.8363C4.08255 32.5246 4.15847 36.6523 6.72722 39.255C8.06491 40.5927 9.84042 41.2438 11.582 41.2599C13.225 41.2599 14.8632 40.6686 16.1621 39.5038C16.356 43.1114 19.3286 45.9758 22.9863 46C24.8765 46 26.5938 45.2035 27.8378 43.9854C28.9994 42.8238 29.741 41.247 29.8347 39.5038C32.523 41.9191 36.6507 41.8415 39.2534 39.2728C40.5911 37.9351 41.2422 36.1596 41.2583 34.418C41.2583 32.775 40.667 31.1368 39.5022 29.8379C41.2454 29.7442 42.8222 29.0026 43.9838 27.841C45.2035 26.5971 45.9984 24.8797 45.9984 22.9895L46 22.9863Z" fill="#EA417D"/>
</svg>
