<svg width="26" height="29" viewBox="0 0 26 29" fill="none" xmlns="http://www.w3.org/2000/svg">
<path d="M12.9639 0C16.9415 7.09952e-05 20.1658 3.22451 20.166 7.20215V8.64258H21.6074C23.9941 8.64258 25.9295 10.5772 25.9297 12.9639V24.4883C25.9297 26.875 23.9942 28.8096 21.6074 28.8096H4.32129C1.93468 28.8094 0 26.8749 0 24.4883V12.9639C0.000138568 10.5773 1.93477 8.64273 4.32129 8.64258H5.76074V7.20215C5.76099 3.22447 8.98613 0 12.9639 0ZM4.32129 11.5234C3.52592 11.5236 2.881 12.1685 2.88086 12.9639V24.4883C2.88086 25.2838 3.52584 25.9286 4.32129 25.9287H21.6074C22.403 25.9287 23.0488 25.2839 23.0488 24.4883V12.9639C23.0487 12.1684 22.4029 11.5234 21.6074 11.5234H4.32129ZM12.9648 14.4053C15.3514 14.4053 17.2859 16.34 17.2861 18.7266C17.2861 21.1133 15.3516 23.0488 12.9648 23.0488C10.5782 23.0487 8.64355 21.1132 8.64355 18.7266C8.64379 16.3401 10.5783 14.4054 12.9648 14.4053ZM12.9648 17.2861C12.1695 17.2862 11.5246 17.9312 11.5244 18.7266C11.5244 19.5221 12.1693 20.1679 12.9648 20.168C13.7604 20.168 14.4053 19.5221 14.4053 18.7266C14.405 17.9312 13.7603 17.2861 12.9648 17.2861ZM12.9639 2.88086C10.5773 2.88086 8.64283 4.81563 8.64258 7.20215V8.64258H17.2852V7.20215C17.2849 4.81567 15.3504 2.88093 12.9639 2.88086Z" fill="#1A534A"/>
</svg>
