<svg width="76" height="76" viewBox="0 0 76 76" fill="none" xmlns="http://www.w3.org/2000/svg">
<path d="M76 37.9773C75.96 31.9369 71.2275 27.0229 65.2672 26.7026C67.1943 24.5566 68.1686 21.85 68.1686 19.1355C68.1392 16.2581 67.0635 13.322 64.8561 11.1145C60.556 6.87051 53.7363 6.74239 49.2947 10.7328C49.1399 7.85277 47.9147 5.25031 45.9956 3.32849C43.9403 1.31324 41.103 0 37.98 0C31.9396 0.0400379 27.0256 4.77252 26.7053 10.7328C24.5593 8.80567 21.8527 7.83142 19.1382 7.83142C16.2608 7.86078 13.3246 8.93647 11.1145 11.1439C6.87051 15.444 6.74241 22.2638 10.7329 26.7053C4.77254 27.0256 0.0400379 31.9369 0 37.98C0 41.1029 1.31591 43.9403 3.32848 45.9956C5.24763 47.9147 7.85279 49.1399 10.7329 49.2947C6.74508 53.7362 6.87051 60.556 11.1145 64.8561C13.3246 67.0662 16.2581 68.1419 19.1355 68.1686C21.8501 68.1686 24.5566 67.1917 26.7026 65.2672C27.0229 71.2275 31.9343 75.96 37.9773 76C41.1003 76 43.9376 74.6841 45.9929 72.6715C47.9121 70.7524 49.1372 68.1472 49.292 65.2672C53.7336 69.2576 60.5534 69.1295 64.8534 64.8855C67.0635 62.6754 68.1392 59.7419 68.1659 56.8645C68.1659 54.15 67.189 51.4434 65.2645 49.2974C68.1446 49.1426 70.7497 47.9174 72.6688 45.9982C74.6841 43.943 75.9973 41.1056 75.9973 37.9826L76 37.9773Z" fill="#A4FC59"/>
</svg>
