<svg xmlns="http://www.w3.org/2000/svg" width="31" height="30" viewBox="0 0 31 30" fill="none">
  <path d="M13.4868 15.1372C13.4868 13.8458 14.5197 12.7986 15.7941 12.7986C17.0686 12.7986 18.102 13.8458 18.102 15.1372C18.102 16.4287 17.0686 17.4759 15.7941 17.4759C14.5197 17.4759 13.4868 16.4287 13.4868 15.1372ZM12.2392 15.1372C12.2392 17.1268 13.8307 18.7395 15.7941 18.7395C17.7575 18.7395 19.349 17.1268 19.349 15.1372C19.349 13.1476 17.7575 11.5349 15.7941 11.5349C13.8307 11.5349 12.2392 13.1476 12.2392 15.1372ZM18.659 11.3921C18.6588 11.857 19.0306 12.2341 19.4894 12.2342C19.9482 12.2344 20.3203 11.8577 20.3205 11.3927C20.3207 10.9278 19.9489 10.5507 19.4901 10.5506H19.4897C19.0311 10.5508 18.6594 10.9273 18.659 11.3921ZM12.9972 20.8476C12.3222 20.8164 11.9554 20.7025 11.7116 20.6062C11.3884 20.4787 11.1577 20.3269 10.9153 20.0815C10.6728 19.8361 10.5227 19.6026 10.3974 19.2751C10.3024 19.0282 10.19 18.6563 10.1593 17.9723C10.1257 17.2328 10.119 17.0107 10.119 15.1373C10.119 13.2638 10.1263 13.0423 10.1593 12.3022C10.19 11.6182 10.3033 11.2471 10.3974 10.9994C10.5233 10.6719 10.6731 10.4382 10.9153 10.1925C11.1574 9.94678 11.3878 9.79469 11.7116 9.66774C11.9553 9.57143 12.3222 9.4575 12.9972 9.42641C13.727 9.3924 13.9462 9.38561 15.7941 9.38561C17.6421 9.38561 17.8615 9.39296 18.5918 9.42641C19.2668 9.45756 19.6331 9.57233 19.8775 9.66774C20.2007 9.79469 20.4313 9.94712 20.6738 10.1925C20.9163 10.4379 21.0658 10.6719 21.1916 10.9994C21.2867 11.2464 21.3991 11.6182 21.4298 12.3022C21.4634 13.0423 21.4701 13.2638 21.4701 15.1373C21.4701 17.0107 21.4634 17.2322 21.4298 17.9723C21.399 18.6563 21.2861 19.0281 21.1916 19.2751C21.0658 19.6026 20.9159 19.8363 20.6738 20.0815C20.4317 20.3266 20.2007 20.4787 19.8775 20.6062C19.6338 20.7025 19.2668 20.8165 18.5918 20.8476C17.8621 20.8816 17.6429 20.8884 15.7941 20.8884C13.9453 20.8884 13.7267 20.8816 12.9972 20.8476ZM12.9399 8.16431C12.2029 8.19832 11.6993 8.31674 11.2595 8.49016C10.804 8.66925 10.4184 8.90951 10.0331 9.29934C9.6478 9.68918 9.41131 10.0805 9.23458 10.5421C9.06344 10.988 8.94658 11.4981 8.91302 12.2449C8.8789 12.9929 8.87109 13.2321 8.87109 15.1372C8.87109 17.0424 8.8789 17.2815 8.91302 18.0295C8.94658 18.7764 9.06344 19.2864 9.23458 19.7323C9.41131 20.1936 9.64786 20.5854 10.0331 20.9751C10.4184 21.3647 10.804 21.6047 11.2595 21.7843C11.7001 21.9577 12.2029 22.0761 12.9399 22.1101C13.6784 22.1441 13.914 22.1526 15.7941 22.1526C17.6742 22.1526 17.9102 22.1447 18.6483 22.1101C19.3854 22.0761 19.8887 21.9577 20.3288 21.7843C20.784 21.6047 21.1698 21.3649 21.5551 20.9751C21.9404 20.5852 22.1764 20.1936 22.3537 19.7323C22.5248 19.2864 22.6422 18.7763 22.6752 18.0295C22.7088 17.2809 22.7166 17.0424 22.7166 15.1372C22.7166 13.2321 22.7088 12.9929 22.6752 12.2449C22.6416 11.498 22.5248 10.9878 22.3537 10.5421C22.1764 10.0808 21.9398 9.68979 21.5551 9.29934C21.1704 8.9089 20.784 8.66925 20.3293 8.49016C19.8887 8.31674 19.3853 8.19776 18.6489 8.16431C17.9107 8.1303 17.6747 8.12183 15.7947 8.12183C13.9146 8.12183 13.6784 8.12974 12.9399 8.16431Z" fill="#B0C4EC"/>
</svg>
