<svg width="363" height="372" viewBox="0 0 363 372" fill="none" xmlns="http://www.w3.org/2000/svg">
<g clip-path="url(#clip0_2224_18387)">
<rect width="363" height="372" rx="16" fill="#D7FFEF"/>
<path d="M-11.2715 206.654C-10.5288 209.189 -10.5828 211.951 -11.5303 214.542C-5.44054 213.717 0.495829 217.418 2.31484 223.479L2.35943 223.627L2.35682 223.639C3.28071 226.946 2.75388 230.338 1.26422 233.124L1.26063 233.129C-0.00883391 235.448 -2.0036 237.364 -4.50795 238.528C-2.31332 240.198 -0.775695 242.494 -0.0327821 245.03L-0.0311349 245.036C0.841138 248.119 0.612089 251.602 -1.06841 254.671L-1.07039 254.675C-4.14739 260.208 -10.7401 262.558 -16.5136 260.451C-16.1432 263.185 -16.682 265.897 -17.9514 268.215L-17.9547 268.221C-19.5229 271.016 -22.1505 273.319 -25.5077 274.303L-25.5115 274.304C-31.6028 276.045 -37.9244 273.05 -40.5148 267.482C-42.1877 269.676 -44.4859 271.214 -47.0241 271.957L-47.0297 271.959C-50.1158 272.832 -53.6005 272.604 -56.6717 270.927L-56.6753 270.925C-62.2113 267.853 -64.5587 261.267 -62.4509 255.498C-65.1863 255.869 -67.8988 255.331 -70.218 254.064L-70.224 254.061C-73.0195 252.496 -75.3244 249.871 -76.307 246.517L-76.3081 246.513C-78.0472 240.427 -75.0467 234.11 -69.4753 231.519C-74.3645 227.799 -75.9394 220.988 -72.9358 215.415L-72.9329 215.411C-71.2515 212.345 -68.4387 210.272 -65.371 209.34L-65.3644 209.338C-62.8266 208.594 -60.0624 208.647 -57.4695 209.592C-58.292 203.507 -54.583 197.575 -48.5183 195.754L-48.5145 195.753C-45.1577 194.77 -41.7031 195.289 -38.874 196.798L-38.8679 196.801C-36.5482 198.071 -34.6318 200.061 -33.4683 202.562C-29.7443 197.673 -22.926 196.095 -17.3499 199.094L-17.3453 199.095C-14.2776 200.771 -12.2055 203.582 -11.2734 206.647L-11.2715 206.654Z" fill="#A4FC5A" stroke="#00896B" stroke-width="1.29921"/>
<path d="M2.58667 198.858C3.32937 201.394 3.27536 204.155 2.32786 206.746C8.41762 205.921 14.354 209.623 16.173 215.683L16.2176 215.832L16.215 215.844C17.1389 219.151 16.612 222.543 15.1224 225.328L15.1188 225.334C13.8493 227.652 11.8546 229.569 9.3502 230.733C11.5448 232.403 13.0825 234.699 13.8254 237.235L13.827 237.24C14.6993 240.324 14.4702 243.806 12.7897 246.876L12.7878 246.879C9.71077 252.413 3.11809 254.763 -2.65547 252.656C-2.28509 255.39 -2.82389 258.101 -4.09328 260.42L-4.09659 260.426C-5.66472 263.22 -8.29233 265.524 -11.6496 266.507L-11.6533 266.509C-17.7447 268.249 -24.0663 265.254 -26.6567 259.687C-28.3296 261.88 -30.6277 263.418 -33.166 264.162L-33.1716 264.163C-36.2577 265.036 -39.7424 264.809 -42.8135 263.131L-42.8171 263.129C-48.3531 260.058 -50.7006 253.472 -48.5927 247.703C-51.3282 248.074 -54.0407 247.536 -56.3598 246.269L-56.3659 246.266C-59.1614 244.7 -61.4662 242.076 -62.4489 238.721L-62.45 238.718C-64.189 232.632 -61.1886 226.315 -55.6172 223.723C-60.5063 220.004 -62.0812 213.193 -59.0776 207.62L-59.0747 207.616C-57.3933 204.549 -54.5806 202.477 -51.5128 201.544L-51.5063 201.542C-48.9684 200.799 -46.2043 200.851 -43.6114 201.797C-44.4339 195.712 -40.7249 189.779 -34.6601 187.959L-34.6564 187.958C-31.2996 186.974 -27.845 187.493 -25.0158 189.003L-25.0098 189.006C-22.6901 190.275 -20.7736 192.265 -19.6102 194.766C-15.8861 189.877 -9.06788 188.3 -3.49173 191.298L-3.48716 191.3C-0.419429 192.976 1.65269 195.787 2.58474 198.852L2.58667 198.858Z" fill="#A4FC5A" stroke="#00896B" stroke-width="1.29921"/>
<path d="M16.4453 191.063C17.188 193.599 17.134 196.36 16.1865 198.951C22.2763 198.126 28.2126 201.828 30.0316 207.888L30.0762 208.037L30.0736 208.049C30.9975 211.356 30.4707 214.748 28.981 217.533L28.9774 217.538C27.708 219.857 25.7132 221.774 23.2088 222.937C25.4035 224.608 26.9411 226.904 27.684 229.44L27.6857 229.445C28.5579 232.529 28.3289 236.011 26.6484 239.08L26.6464 239.084C23.5694 244.618 16.9767 246.968 11.2032 244.861C11.5735 247.595 11.0348 250.306 9.76536 252.625L9.76205 252.631C8.19392 255.425 5.56631 257.729 2.20906 258.712L2.20531 258.713C-3.88603 260.454 -10.2076 257.459 -12.798 251.891C-14.4709 254.085 -16.7691 255.623 -19.3073 256.367L-19.3129 256.368C-22.399 257.241 -25.8837 257.014 -28.9549 255.336L-28.9585 255.334C-34.4945 252.263 -36.8419 245.677 -34.7341 239.908C-37.4695 240.279 -40.182 239.741 -42.5012 238.474L-42.5072 238.471C-45.3028 236.905 -47.6076 234.281 -48.5902 230.926L-48.5913 230.922C-50.3304 224.836 -47.3299 218.52 -41.7585 215.928C-46.6477 212.209 -48.2226 205.397 -45.219 199.825L-45.2161 199.821C-43.5347 196.754 -40.7219 194.682 -37.6542 193.749L-37.6476 193.747C-35.1098 193.004 -32.3456 193.056 -29.7527 194.002C-30.5752 187.917 -26.8662 181.984 -20.8015 180.164L-20.7977 180.163C-17.4409 179.179 -13.9863 179.698 -11.1572 181.208L-11.1511 181.211C-8.83145 182.48 -6.91495 184.47 -5.75155 186.971C-2.02748 182.082 4.79077 180.505 10.3669 183.503L10.3715 183.505C13.4392 185.181 15.5113 187.991 16.4434 191.057L16.4453 191.063Z" fill="#A4FC5A" stroke="#00896B" stroke-width="1.29921"/>
<path d="M30.3027 183.268C31.0454 185.803 30.9914 188.565 30.0439 191.156C36.1337 190.331 42.07 194.033 43.8891 200.093L43.9336 200.242L43.931 200.254C44.8549 203.561 44.3281 206.953 42.8384 209.738L42.8349 209.743C41.5654 212.062 39.5706 213.979 37.0663 215.142C39.2609 216.813 40.7985 219.108 41.5414 221.644L41.5431 221.65C42.4154 224.734 42.1863 228.216 40.5058 231.285L40.5038 231.289C37.4268 236.823 30.8342 239.173 25.0606 237.065C25.431 239.8 24.8922 242.511 23.6228 244.83L23.6195 244.836C22.0513 247.63 19.4237 249.934 16.0665 250.917L16.0627 250.918C9.97139 252.659 3.64978 249.664 1.05941 244.096C-0.613512 246.29 -2.91167 247.828 -5.4499 248.571L-5.45552 248.573C-8.5416 249.446 -12.0263 249.218 -15.0974 247.541L-15.1011 247.539C-20.6371 244.467 -22.9845 237.881 -20.8767 232.113C-23.6121 232.483 -26.3246 231.946 -28.6438 230.679L-28.6498 230.675C-31.4453 229.11 -33.7502 226.486 -34.7328 223.131L-34.7339 223.127C-36.473 217.041 -33.4725 210.724 -27.9011 208.133C-32.7903 204.414 -34.3652 197.602 -31.3616 192.03L-31.3587 192.026C-29.6773 188.959 -26.8645 186.887 -23.7967 185.954L-23.7902 185.952C-21.2524 185.209 -18.4882 185.261 -15.8953 186.207C-16.7178 180.121 -13.0088 174.189 -6.94404 172.369L-6.94029 172.367C-3.5835 171.384 -0.128923 171.903 2.70023 173.412L2.70629 173.416C5.02597 174.685 6.94247 176.675 8.10587 179.176C11.8299 174.287 18.6482 172.71 24.2243 175.708L24.2289 175.71C27.2966 177.385 29.3688 180.196 30.3008 183.261L30.3027 183.268Z" fill="#A4FC5A" stroke="#00896B" stroke-width="1.29921"/>
<path d="M51.957 178.071C52.6997 180.606 52.6457 183.368 51.6982 185.959C57.788 185.134 63.7243 188.836 65.5434 194.896L65.5879 195.045L65.5853 195.057C66.5092 198.364 65.9824 201.756 64.4927 204.541L64.4891 204.546C63.2197 206.865 61.2249 208.782 58.7206 209.945C60.9152 211.616 62.4528 213.911 63.1957 216.447L63.1974 216.453C64.0697 219.537 63.8406 223.019 62.1601 226.088L62.1581 226.092C59.0811 231.626 52.4885 233.976 46.7149 231.868C47.0853 234.603 46.5465 237.314 45.2771 239.633L45.2738 239.639C43.7056 242.433 41.078 244.737 37.7208 245.72L37.717 245.721C31.6257 247.462 25.3041 244.467 22.7137 238.899C21.0408 241.093 18.7426 242.631 16.2044 243.374L16.1988 243.376C13.1127 244.249 9.62798 244.021 6.55686 242.344L6.55322 242.342C1.01723 239.27 -1.3302 232.684 0.777637 226.916C-1.95782 227.286 -4.67033 226.749 -6.98947 225.482L-6.99553 225.478C-9.79103 223.913 -12.0959 221.289 -13.0785 217.934L-13.0796 217.93C-14.8187 211.844 -11.8182 205.527 -6.2468 202.936C-11.136 199.217 -12.7109 192.405 -9.70728 186.833L-9.70435 186.829C-8.02297 183.762 -5.21023 181.69 -2.14245 180.757L-2.13589 180.755C0.401936 180.012 3.16608 180.064 5.75898 181.01C4.9365 174.924 8.64547 168.992 14.7103 167.172L14.714 167.17C18.0708 166.187 21.5254 166.706 24.3545 168.215L24.3606 168.219C26.6803 169.488 28.5968 171.478 29.7602 173.979C33.4842 169.09 40.3025 167.513 45.8786 170.511L45.8832 170.513C48.9509 172.188 51.023 174.999 51.9551 178.064L51.957 178.071Z" fill="#A4FC5A" stroke="#00896B" stroke-width="1.29921"/>
<path d="M73.6103 172.874C74.3531 175.41 74.299 178.171 73.3515 180.762C79.4413 179.937 85.3777 183.639 87.1967 189.699L87.2413 189.848L87.2387 189.86C88.1625 193.167 87.6357 196.559 86.1461 199.344L86.1425 199.349C84.873 201.668 82.8782 203.585 80.3739 204.748C82.5685 206.419 84.1061 208.715 84.8491 211.251L84.8507 211.256C85.723 214.34 85.4939 217.822 83.8134 220.892L83.8114 220.895C80.7344 226.429 74.1418 228.779 68.3682 226.672C68.7386 229.406 68.1998 232.117 66.9304 234.436L66.9271 234.442C65.359 237.236 62.7314 239.54 59.3741 240.523L59.3704 240.524C53.279 242.265 46.9574 239.27 44.367 233.702C42.6941 235.896 40.3959 237.434 37.8577 238.178L37.8521 238.179C34.766 239.052 31.2813 238.825 28.2102 237.147L28.2065 237.145C22.6705 234.074 20.3231 227.488 22.431 221.719C19.6955 222.09 16.983 221.552 14.6638 220.285L14.6578 220.282C11.8623 218.716 9.55746 216.092 8.5748 212.737L8.5737 212.733C6.83465 206.647 9.83511 200.331 15.4065 197.739C10.5173 194.02 8.94246 187.208 11.946 181.636L11.949 181.632C13.6303 178.565 16.4431 176.493 19.5109 175.56L19.5174 175.558C22.0553 174.815 24.8194 174.867 27.4123 175.813C26.5898 169.728 30.2988 163.795 36.3636 161.975L36.3673 161.974C39.7241 160.99 43.1787 161.509 46.0078 163.019L46.0139 163.022C48.3336 164.291 50.2501 166.281 51.4135 168.782C55.1376 163.893 61.9558 162.316 67.5319 165.314L67.5365 165.316C70.6043 166.992 72.6764 169.802 73.6084 172.868L73.6103 172.874Z" fill="#A4FC5A" stroke="#00896B" stroke-width="1.29921"/>
<path d="M95.2635 167.678C96.0063 170.213 95.9522 172.974 95.0047 175.566C101.094 174.741 107.031 178.442 108.85 184.503L108.894 184.651L108.892 184.663C109.816 187.97 109.289 191.362 107.799 194.148L107.796 194.153C106.526 196.472 104.531 198.388 102.027 199.552C104.222 201.222 105.759 203.518 106.502 206.054L106.504 206.06C107.376 209.143 107.147 212.625 105.467 215.695L105.465 215.699C102.388 221.232 95.795 223.582 90.0214 221.475C90.3918 224.209 89.853 226.921 88.5836 229.239L88.5803 229.245C87.0122 232.039 84.3845 234.343 81.0273 235.327L81.0236 235.328C74.9322 237.069 68.6106 234.074 66.0202 228.506C64.3473 230.7 62.0491 232.238 59.5109 232.981L59.5053 232.983C56.4192 233.856 52.9345 233.628 49.8634 231.95L49.8597 231.948C44.3237 228.877 41.9763 222.291 44.0842 216.522C41.3487 216.893 38.6362 216.355 36.317 215.088L36.311 215.085C33.5155 213.52 31.2107 210.895 30.228 207.541L30.2269 207.537C28.4878 201.451 31.4883 195.134 37.0597 192.543C32.1705 188.823 30.5957 182.012 33.5992 176.439L33.6022 176.435C35.2835 173.369 38.0963 171.296 41.1641 170.364L41.1706 170.362C43.7085 169.618 46.4726 169.671 49.0655 170.616C48.243 164.531 51.952 158.599 58.0168 156.778L58.0205 156.777C61.3773 155.794 64.8319 156.313 67.661 157.822L67.6671 157.825C69.9868 159.095 71.9033 161.085 73.0667 163.586C76.7908 158.697 83.609 157.119 89.1851 160.118L89.1897 160.119C92.2575 161.795 94.3296 164.606 95.2616 167.671L95.2635 167.678Z" fill="#A4FC5A" stroke="#00896B" stroke-width="1.29921"/>
<path d="M125.578 171.142C126.321 173.677 126.267 176.439 125.32 179.03C131.409 178.205 137.346 181.907 139.165 187.967L139.209 188.116L139.207 188.128C140.131 191.435 139.604 194.827 138.114 197.612L138.11 197.617C136.841 199.936 134.846 201.853 132.342 203.016C134.537 204.687 136.074 206.982 136.817 209.518L136.819 209.524C137.691 212.608 137.462 216.09 135.781 219.159L135.779 219.163C132.702 224.697 126.11 227.047 120.336 224.939C120.707 227.674 120.168 230.385 118.898 232.704L118.895 232.71C117.327 235.504 114.699 237.808 111.342 238.791L111.338 238.792C105.247 240.533 98.9254 237.538 96.335 231.97C94.6621 234.164 92.364 235.702 89.8257 236.445L89.8201 236.447C86.734 237.32 83.2493 237.092 80.1782 235.415L80.1746 235.413C74.6386 232.341 72.2911 225.755 74.399 219.987C71.6635 220.357 68.951 219.82 66.6319 218.553L66.6258 218.549C63.8303 216.984 61.5255 214.36 60.5428 211.005L60.5417 211.001C58.8027 204.915 61.8031 198.598 67.3745 196.007C62.4854 192.288 60.9105 185.476 63.9141 179.904L63.917 179.9C65.5984 176.833 68.4111 174.761 71.4789 173.828L71.4854 173.826C74.0233 173.083 76.7874 173.135 79.3803 174.081C78.5578 167.995 82.2668 162.063 88.3316 160.243L88.3353 160.241C91.6921 159.258 95.1467 159.777 97.9759 161.286L97.9819 161.29C100.302 162.559 102.218 164.549 103.382 167.05C107.106 162.161 113.924 160.584 119.5 163.582L119.505 163.584C122.572 165.26 124.644 168.07 125.576 171.135L125.578 171.142Z" fill="#A4FC5A" stroke="#00896B" stroke-width="1.29921"/>
<path d="M155.894 174.607C156.636 177.142 156.582 179.903 155.635 182.495C161.725 181.67 167.661 185.371 169.48 191.432L169.524 191.58L169.522 191.592C170.446 194.899 169.919 198.291 168.429 201.077L168.426 201.082C167.156 203.401 165.161 205.317 162.657 206.481C164.852 208.151 166.389 210.447 167.132 212.983L167.134 212.989C168.006 216.072 167.777 219.554 166.097 222.624L166.095 222.628C163.018 228.161 156.425 230.511 150.651 228.404C151.022 231.138 150.483 233.85 149.214 236.168L149.21 236.174C147.642 238.968 145.015 241.272 141.657 242.256L141.654 242.257C135.562 243.998 129.241 241.003 126.65 235.435C124.977 237.629 122.679 239.167 120.141 239.91L120.135 239.912C117.049 240.785 113.565 240.557 110.493 238.879L110.49 238.877C104.954 235.806 102.606 229.22 104.714 223.451C101.979 223.822 99.2662 223.284 96.9471 222.017L96.941 222.014C94.1455 220.449 91.8407 217.824 90.858 214.47L90.8569 214.466C89.1179 208.38 92.1183 202.063 97.6897 199.472C92.8005 195.752 91.2257 188.941 94.2292 183.368L94.2322 183.364C95.9136 180.298 98.7263 178.225 101.794 177.293L101.801 177.291C104.338 176.547 107.103 176.6 109.696 177.545C108.873 171.46 112.582 165.527 118.647 163.707L118.651 163.706C122.007 162.723 125.462 163.242 128.291 164.751L128.297 164.754C130.617 166.023 132.533 168.014 133.697 170.515C137.421 165.626 144.239 164.048 149.815 167.047L149.82 167.048C152.887 168.724 154.96 171.535 155.892 174.6L155.894 174.607Z" fill="#A4FC5A" stroke="#00896B" stroke-width="1.29921"/>
<path d="M186.208 178.071C186.951 180.606 186.897 183.368 185.949 185.959C192.039 185.134 197.975 188.836 199.794 194.896L199.839 195.045L199.836 195.057C200.76 198.364 200.233 201.756 198.744 204.541L198.74 204.546C197.471 206.865 195.476 208.782 192.972 209.945C195.166 211.616 196.704 213.911 197.447 216.447L197.448 216.453C198.321 219.537 198.092 223.019 196.411 226.088L196.409 226.092C193.332 231.626 186.739 233.976 180.966 231.868C181.336 234.603 180.797 237.314 179.528 239.633L179.525 239.639C177.957 242.433 175.329 244.737 171.972 245.72L171.968 245.721C165.877 247.462 159.555 244.467 156.965 238.899C155.292 241.093 152.994 242.631 150.455 243.374L150.45 243.376C147.364 244.249 143.879 244.021 140.808 242.344L140.804 242.342C135.268 239.27 132.921 232.684 135.029 226.916C132.293 227.286 129.581 226.749 127.262 225.482L127.255 225.478C124.46 223.913 122.155 221.289 121.172 217.934L121.171 217.93C119.432 211.844 122.433 205.527 128.004 202.936C123.115 199.217 121.54 192.405 124.544 186.833L124.547 186.829C126.228 183.762 129.041 181.69 132.109 180.757L132.115 180.755C134.653 180.012 137.417 180.064 140.01 181.01C139.187 174.924 142.896 168.992 148.961 167.172L148.965 167.17C152.322 166.187 155.776 166.706 158.606 168.215L158.612 168.219C160.931 169.488 162.848 171.478 164.011 173.979C167.735 169.09 174.553 167.513 180.13 170.511L180.134 170.513C183.202 172.188 185.274 174.999 186.206 178.064L186.208 178.071Z" fill="#A4FC5A" stroke="#00896B" stroke-width="1.29921"/>
<path d="M207.861 184.134C208.604 186.67 208.55 189.431 207.603 192.022C213.692 191.197 219.629 194.899 221.448 200.959L221.492 201.108L221.49 201.12C222.414 204.427 221.887 207.819 220.397 210.604L220.394 210.609C219.124 212.928 217.129 214.845 214.625 216.008C216.82 217.679 218.357 219.975 219.1 222.511L219.102 222.516C219.974 225.6 219.745 229.082 218.065 232.152L218.063 232.155C214.986 237.689 208.393 240.039 202.619 237.932C202.99 240.666 202.451 243.377 201.181 245.696L201.178 245.702C199.61 248.496 196.982 250.8 193.625 251.783L193.621 251.784C187.53 253.525 181.208 250.53 178.618 244.962C176.945 247.156 174.647 248.694 172.109 249.438L172.103 249.439C169.017 250.312 165.532 250.085 162.461 248.407L162.458 248.405C156.922 245.334 154.574 238.748 156.682 232.979C153.947 233.35 151.234 232.812 148.915 231.545L148.909 231.542C146.113 229.976 143.809 227.352 142.826 223.997L142.825 223.993C141.086 217.907 144.086 211.591 149.658 208.999C144.768 205.28 143.194 198.468 146.197 192.896L146.2 192.892C147.881 189.825 150.694 187.753 153.762 186.82L153.769 186.818C156.306 186.075 159.07 186.127 161.663 187.073C160.841 180.988 164.55 175.055 170.615 173.235L170.618 173.234C173.975 172.25 177.43 172.769 180.259 174.279L180.265 174.282C182.585 175.551 184.501 177.541 185.665 180.042C189.389 175.153 196.207 173.576 201.783 176.574L201.788 176.576C204.855 178.252 206.927 181.062 207.86 184.128L207.861 184.134Z" fill="#A4FC5A" stroke="#00896B" stroke-width="1.29921"/>
<path d="M229.515 190.197C230.258 192.733 230.204 195.494 229.256 198.085C235.346 197.26 241.282 200.962 243.101 207.022L243.146 207.171L243.143 207.183C244.067 210.49 243.54 213.882 242.051 216.667L242.047 216.672C240.778 218.991 238.783 220.908 236.278 222.071C238.473 223.742 240.011 226.038 240.754 228.574L240.755 228.579C241.628 231.663 241.398 235.145 239.718 238.214L239.716 238.218C236.639 243.752 230.046 246.102 224.273 243.995C224.643 246.729 224.104 249.44 222.835 251.759L222.832 251.765C221.263 254.559 218.636 256.863 215.279 257.846L215.275 257.847C209.184 259.588 202.862 256.593 200.272 251.025C198.599 253.219 196.3 254.757 193.762 255.501L193.757 255.502C190.671 256.375 187.186 256.148 184.115 254.47L184.111 254.468C178.575 251.397 176.228 244.811 178.335 239.042C175.6 239.413 172.888 238.875 170.568 237.608L170.562 237.605C167.767 236.039 165.462 233.415 164.479 230.06L164.478 230.056C162.739 223.97 165.74 217.654 171.311 215.062C166.422 211.343 164.847 204.531 167.851 198.959L167.854 198.955C169.535 195.888 172.348 193.816 175.415 192.883L175.422 192.881C177.96 192.138 180.724 192.19 183.317 193.136C182.494 187.051 186.203 181.118 192.268 179.298L192.272 179.297C195.629 178.313 199.083 178.832 201.912 180.342L201.918 180.345C204.238 181.614 206.155 183.604 207.318 186.105C211.042 181.216 217.86 179.639 223.436 182.637L223.441 182.639C226.509 184.315 228.581 187.125 229.513 190.191L229.515 190.197Z" fill="#A4FC5A" stroke="#00896B" stroke-width="1.29921"/>
<path d="M255.499 196.26C256.242 198.796 256.188 201.557 255.24 204.148C261.33 203.323 267.266 207.025 269.085 213.085L269.13 213.234L269.127 213.246C270.051 216.553 269.524 219.945 268.035 222.73L268.031 222.735C266.762 225.054 264.767 226.971 262.263 228.134C264.457 229.805 265.995 232.101 266.738 234.637L266.739 234.642C267.612 237.726 267.383 241.208 265.702 244.277L265.7 244.281C262.623 249.815 256.03 252.165 250.257 250.058C250.627 252.792 250.088 255.503 248.819 257.822L248.816 257.828C247.248 260.622 244.62 262.926 241.263 263.909L241.259 263.91C235.168 265.651 228.846 262.656 226.256 257.088C224.583 259.282 222.285 260.82 219.746 261.564L219.741 261.565C216.655 262.438 213.17 262.211 210.099 260.533L210.095 260.531C204.559 257.46 202.212 250.874 204.32 245.105C201.584 245.476 198.872 244.938 196.553 243.671L196.546 243.668C193.751 242.102 191.446 239.478 190.463 236.123L190.462 236.119C188.723 230.033 191.724 223.717 197.295 221.125C192.406 217.406 190.831 210.594 193.835 205.022L193.838 205.018C195.519 201.951 198.332 199.879 201.4 198.946L201.406 198.944C203.944 198.201 206.708 198.253 209.301 199.199C208.478 193.114 212.187 187.181 218.252 185.361L218.256 185.36C221.613 184.376 225.067 184.895 227.897 186.405L227.903 186.408C230.222 187.677 232.139 189.667 233.302 192.168C237.026 187.279 243.844 185.702 249.421 188.7L249.425 188.702C252.493 190.378 254.565 193.188 255.497 196.254L255.499 196.26Z" fill="#A4FC5A" stroke="#00896B" stroke-width="1.29921"/>
<rect x="73.5303" y="127.006" width="215.059" height="88.8633" rx="18.0632" fill="#00896B"/>
<g clip-path="url(#clip1_2224_18387)">
<rect width="34.3987" height="43.3518" transform="translate(227.175 188.639) rotate(-90)" fill="#00896B"/>
<path d="M236.206 177.172L261.495 177.172L248.851 161.406L236.206 177.172Z" fill="#A4FC5A"/>
</g>
<path d="M92.886 195.174V183.794H96.7389C97.6384 183.794 98.3754 183.946 98.9498 184.25C99.5242 184.553 99.9469 184.96 100.218 185.469C100.5 185.967 100.641 186.536 100.641 187.176C100.641 187.783 100.5 188.346 100.218 188.867C99.9361 189.376 99.5025 189.788 98.9173 190.102C98.3429 190.406 97.6005 190.557 96.6901 190.557H94.5117V195.174H92.886ZM98.8523 195.174L96.4137 190.118H98.202L100.754 195.174H98.8523ZM94.5117 189.322H96.6251C97.4271 189.322 98.0177 189.127 98.3971 188.737C98.7764 188.336 98.9661 187.826 98.9661 187.208C98.9661 186.58 98.7818 186.081 98.4133 185.713C98.0448 185.344 97.4433 185.16 96.6088 185.16H94.5117V189.322ZM106.041 195.369C105.25 195.369 104.551 195.196 103.944 194.849C103.337 194.492 102.86 193.993 102.513 193.354C102.177 192.714 102.009 191.972 102.009 191.126C102.009 190.259 102.177 189.506 102.513 188.867C102.86 188.227 103.337 187.729 103.944 187.371C104.551 187.003 105.255 186.818 106.057 186.818C106.859 186.818 107.547 186.997 108.122 187.355C108.696 187.712 109.141 188.184 109.455 188.769C109.769 189.354 109.926 190.005 109.926 190.72C109.926 190.828 109.926 190.948 109.926 191.078C109.926 191.197 109.921 191.332 109.91 191.484H103.196V190.33H108.301C108.268 189.658 108.041 189.132 107.618 188.753C107.195 188.363 106.67 188.168 106.041 188.168C105.607 188.168 105.201 188.271 104.822 188.476C104.453 188.672 104.155 188.959 103.928 189.338C103.711 189.717 103.602 190.2 103.602 190.785V191.24C103.602 191.847 103.711 192.356 103.928 192.768C104.155 193.18 104.453 193.494 104.822 193.711C105.19 193.917 105.591 194.02 106.025 194.02C106.545 194.02 106.973 193.906 107.309 193.679C107.656 193.44 107.911 193.126 108.073 192.736H109.699C109.558 193.234 109.319 193.684 108.983 194.085C108.648 194.486 108.23 194.8 107.732 195.028C107.244 195.256 106.68 195.369 106.041 195.369ZM115.038 195.174C114.518 195.174 114.068 195.093 113.689 194.93C113.309 194.768 113.017 194.497 112.811 194.118C112.605 193.738 112.502 193.223 112.502 192.573V188.379H111.104V187.013H112.502L112.713 184.965H114.128V187.013H116.452V188.379H114.128V192.589C114.128 193.055 114.225 193.375 114.42 193.549C114.615 193.711 114.951 193.792 115.428 193.792H116.355V195.174H115.038ZM121.383 195.369C120.744 195.369 120.186 195.239 119.709 194.979C119.243 194.719 118.885 194.329 118.636 193.809C118.387 193.278 118.262 192.617 118.262 191.825V187.013H119.888V191.647C119.888 192.427 120.05 193.012 120.376 193.402C120.712 193.792 121.194 193.988 121.822 193.988C122.256 193.988 122.641 193.885 122.977 193.679C123.323 193.473 123.594 193.175 123.789 192.785C123.985 192.394 124.082 191.912 124.082 191.338V187.013H125.708V195.174H124.261L124.147 193.776C123.898 194.264 123.529 194.654 123.042 194.947C122.565 195.229 122.012 195.369 121.383 195.369ZM128.08 195.174V187.013H129.543L129.69 188.558C129.874 188.189 130.107 187.88 130.389 187.631C130.681 187.371 131.023 187.17 131.413 187.03C131.814 186.889 132.264 186.818 132.762 186.818V188.525H132.226C131.879 188.525 131.554 188.569 131.25 188.655C130.947 188.742 130.676 188.883 130.438 189.078C130.21 189.273 130.031 189.539 129.901 189.875C129.771 190.211 129.706 190.628 129.706 191.126V195.174H128.08ZM134.419 195.174V187.013H135.882L135.979 188.411C136.239 187.924 136.608 187.539 137.085 187.257C137.562 186.965 138.114 186.818 138.743 186.818C139.382 186.818 139.935 186.948 140.401 187.208C140.867 187.469 141.23 187.864 141.49 188.395C141.75 188.926 141.881 189.587 141.881 190.379V195.174H140.255V190.541C140.255 189.772 140.087 189.192 139.751 188.802C139.415 188.401 138.933 188.2 138.304 188.2C137.87 188.2 137.48 188.303 137.133 188.509C136.798 188.715 136.532 189.013 136.337 189.403C136.142 189.793 136.044 190.276 136.044 190.85V195.174H134.419ZM147.293 195.369C146.61 195.369 146.003 195.256 145.472 195.028C144.952 194.8 144.54 194.481 144.236 194.069C143.933 193.657 143.749 193.175 143.684 192.622H145.326C145.391 192.882 145.499 193.121 145.651 193.337C145.813 193.554 146.03 193.727 146.301 193.858C146.583 193.988 146.913 194.053 147.293 194.053C147.65 194.053 147.943 194.004 148.171 193.906C148.398 193.798 148.566 193.657 148.675 193.484C148.794 193.299 148.853 193.11 148.853 192.915C148.853 192.611 148.777 192.384 148.626 192.232C148.485 192.069 148.268 191.945 147.975 191.858C147.694 191.76 147.347 191.674 146.935 191.598C146.577 191.522 146.22 191.43 145.862 191.321C145.515 191.213 145.201 191.072 144.919 190.899C144.648 190.725 144.426 190.509 144.253 190.248C144.09 189.978 144.009 189.652 144.009 189.273C144.009 188.796 144.133 188.374 144.383 188.005C144.632 187.637 144.984 187.349 145.439 187.143C145.905 186.927 146.453 186.818 147.081 186.818C147.981 186.818 148.707 187.035 149.26 187.469C149.823 187.891 150.148 188.504 150.235 189.306H148.675C148.62 188.937 148.452 188.65 148.171 188.444C147.9 188.238 147.531 188.135 147.065 188.135C146.599 188.135 146.241 188.233 145.992 188.428C145.743 188.612 145.618 188.85 145.618 189.143C145.618 189.338 145.689 189.511 145.83 189.663C145.981 189.815 146.193 189.945 146.464 190.053C146.745 190.151 147.081 190.243 147.471 190.33C148.035 190.438 148.544 190.574 149 190.736C149.455 190.899 149.818 191.137 150.089 191.451C150.371 191.755 150.512 192.205 150.512 192.801C150.512 193.299 150.376 193.744 150.105 194.134C149.845 194.524 149.477 194.828 149 195.044C148.523 195.261 147.954 195.369 147.293 195.369Z" fill="white"/>
<path d="M100.468 179.353C99.2927 179.353 98.1752 179.141 97.1155 178.717C96.0751 178.274 95.1791 177.657 94.4277 176.867C93.6955 176.058 93.1946 175.104 92.9248 174.006L96.3641 172.792C96.7109 173.775 97.2407 174.526 97.9536 175.046C98.6665 175.547 99.5047 175.798 100.468 175.798C101.239 175.798 101.903 175.653 102.462 175.364C103.04 175.075 103.493 174.661 103.821 174.122C104.148 173.563 104.312 172.908 104.312 172.156C104.312 171.405 104.148 170.769 103.821 170.249C103.512 169.709 103.069 169.295 102.491 169.006C101.913 168.717 101.229 168.573 100.439 168.573C100.073 168.573 99.6877 168.611 99.2831 168.688C98.8977 168.765 98.5509 168.881 98.2427 169.035L97.3467 167.156L102.925 160.798H94.1387V157.474H107.347V160.567L101.74 167.127L101.798 165.654C103.088 165.673 104.216 165.952 105.179 166.492C106.142 167.031 106.894 167.773 107.433 168.717C107.973 169.661 108.242 170.769 108.242 172.041C108.242 173.428 107.905 174.68 107.231 175.798C106.557 176.896 105.632 177.763 104.456 178.399C103.281 179.035 101.952 179.353 100.468 179.353ZM118.541 179.353C117.404 179.353 116.315 179.141 115.275 178.717C114.254 178.293 113.367 177.696 112.616 176.925C111.884 176.135 111.383 175.201 111.113 174.122L114.524 172.908C114.851 173.89 115.381 174.623 116.113 175.104C116.845 175.567 117.654 175.798 118.541 175.798C119.273 175.798 119.918 175.644 120.477 175.335C121.055 175.008 121.498 174.565 121.807 174.006C122.115 173.428 122.269 172.763 122.269 172.012C122.269 171.26 122.105 170.605 121.778 170.046C121.469 169.488 121.036 169.054 120.477 168.746C119.918 168.418 119.273 168.255 118.541 168.255C117.789 168.255 117.105 168.418 116.489 168.746C115.891 169.073 115.458 169.546 115.188 170.162L111.98 169.44L113.685 157.474H125.419V160.798H115.246L116.72 159.093L115.506 168.11L114.379 167.185C114.918 166.395 115.574 165.817 116.344 165.451C117.134 165.085 118.088 164.902 119.205 164.902C120.631 164.902 121.864 165.21 122.905 165.827C123.965 166.443 124.783 167.282 125.361 168.341C125.939 169.401 126.228 170.625 126.228 172.012C126.228 173.399 125.891 174.651 125.217 175.769C124.543 176.886 123.627 177.763 122.471 178.399C121.315 179.035 120.005 179.353 118.541 179.353ZM131.582 179.006V174.96H135.397V179.006H131.582ZM149.47 179.353C147.755 179.353 146.252 178.89 144.961 177.965C143.67 177.041 142.659 175.74 141.927 174.064C141.214 172.387 140.857 170.441 140.857 168.226C140.857 165.991 141.214 164.045 141.927 162.388C142.639 160.731 143.641 159.44 144.932 158.515C146.223 157.59 147.726 157.128 149.441 157.128C151.194 157.128 152.707 157.59 153.978 158.515C155.269 159.44 156.281 160.74 157.013 162.417C157.745 164.074 158.111 166.01 158.111 168.226C158.111 170.441 157.745 172.387 157.013 174.064C156.3 175.721 155.298 177.021 154.007 177.965C152.716 178.89 151.204 179.353 149.47 179.353ZM149.499 175.769C150.481 175.769 151.319 175.47 152.013 174.873C152.707 174.256 153.237 173.389 153.603 172.272C153.988 171.135 154.181 169.786 154.181 168.226C154.181 166.665 153.988 165.326 153.603 164.208C153.237 163.072 152.697 162.205 151.984 161.607C151.291 161.01 150.443 160.711 149.441 160.711C148.478 160.711 147.649 161.01 146.955 161.607C146.262 162.205 145.722 163.072 145.337 164.208C144.971 165.326 144.788 166.665 144.788 168.226C144.788 169.767 144.971 171.106 145.337 172.243C145.722 173.36 146.262 174.228 146.955 174.844C147.668 175.461 148.516 175.769 149.499 175.769ZM170.221 179.353C168.506 179.353 167.003 178.89 165.712 177.965C164.422 177.041 163.41 175.74 162.678 174.064C161.965 172.387 161.608 170.441 161.608 168.226C161.608 165.991 161.965 164.045 162.678 162.388C163.391 160.731 164.393 159.44 165.684 158.515C166.974 157.59 168.477 157.128 170.192 157.128C171.945 157.128 173.458 157.59 174.73 158.515C176.021 159.44 177.032 160.74 177.764 162.417C178.496 164.074 178.863 166.01 178.863 168.226C178.863 170.441 178.496 172.387 177.764 174.064C177.051 175.721 176.049 177.021 174.759 177.965C173.468 178.89 171.955 179.353 170.221 179.353ZM170.25 175.769C171.233 175.769 172.071 175.47 172.764 174.873C173.458 174.256 173.988 173.389 174.354 172.272C174.739 171.135 174.932 169.786 174.932 168.226C174.932 166.665 174.739 165.326 174.354 164.208C173.988 163.072 173.448 162.205 172.735 161.607C172.042 161.01 171.194 160.711 170.192 160.711C169.229 160.711 168.4 161.01 167.707 161.607C167.013 162.205 166.474 163.072 166.088 164.208C165.722 165.326 165.539 166.665 165.539 168.226C165.539 169.767 165.722 171.106 166.088 172.243C166.474 173.36 167.013 174.228 167.707 174.844C168.42 175.461 169.267 175.769 170.25 175.769ZM185.163 179.006L202.62 157.474H206.666L189.209 179.006H185.163ZM188.545 168.399C187.466 168.399 186.493 168.149 185.626 167.648C184.778 167.127 184.103 166.443 183.603 165.596C183.102 164.748 182.851 163.804 182.851 162.763C182.851 161.723 183.102 160.779 183.603 159.931C184.103 159.064 184.778 158.38 185.626 157.879C186.493 157.378 187.456 157.128 188.516 157.128C189.595 157.128 190.558 157.378 191.406 157.879C192.254 158.38 192.928 159.064 193.429 159.931C193.93 160.779 194.18 161.723 194.18 162.763C194.18 163.804 193.93 164.748 193.429 165.596C192.928 166.443 192.254 167.127 191.406 167.648C190.558 168.149 189.604 168.399 188.545 168.399ZM188.516 165.48C189.094 165.48 189.575 165.355 189.961 165.104C190.346 164.835 190.635 164.497 190.828 164.093C191.04 163.669 191.146 163.226 191.146 162.763C191.146 162.282 191.04 161.839 190.828 161.434C190.635 161.029 190.346 160.692 189.961 160.422C189.575 160.153 189.094 160.018 188.516 160.018C187.976 160.018 187.504 160.153 187.1 160.422C186.714 160.692 186.416 161.039 186.204 161.463C185.992 161.867 185.886 162.301 185.886 162.763C185.886 163.207 185.992 163.64 186.204 164.064C186.416 164.488 186.714 164.835 187.1 165.104C187.504 165.355 187.976 165.48 188.516 165.48ZM203.198 179.353C202.138 179.353 201.174 179.102 200.307 178.601C199.46 178.081 198.785 177.397 198.284 176.549C197.783 175.701 197.533 174.757 197.533 173.717C197.533 172.676 197.783 171.732 198.284 170.885C198.785 170.018 199.46 169.334 200.307 168.833C201.174 168.332 202.138 168.081 203.198 168.081C204.277 168.081 205.24 168.332 206.088 168.833C206.935 169.334 207.61 170.018 208.111 170.885C208.612 171.732 208.862 172.676 208.862 173.717C208.862 174.757 208.612 175.701 208.111 176.549C207.61 177.397 206.935 178.081 206.088 178.601C205.24 179.102 204.277 179.353 203.198 179.353ZM203.198 176.434C203.756 176.434 204.228 176.308 204.614 176.058C205.018 175.788 205.317 175.451 205.51 175.046C205.722 174.623 205.828 174.179 205.828 173.717C205.828 173.235 205.722 172.792 205.51 172.387C205.317 171.983 205.018 171.646 204.614 171.376C204.228 171.106 203.756 170.971 203.198 170.971C202.658 170.971 202.186 171.106 201.781 171.376C201.396 171.646 201.097 171.993 200.885 172.416C200.673 172.821 200.568 173.255 200.568 173.717C200.568 174.16 200.673 174.594 200.885 175.017C201.097 175.441 201.396 175.788 201.781 176.058C202.186 176.308 202.658 176.434 203.198 176.434Z" fill="white"/>
<path d="M280.617 201.457C281.36 203.992 281.306 206.754 280.358 209.345C286.448 208.52 292.384 212.222 294.203 218.282L294.248 218.431L294.245 218.443C295.169 221.75 294.642 225.142 293.153 227.927L293.149 227.932C291.88 230.251 289.885 232.168 287.381 233.331C289.575 235.002 291.113 237.297 291.856 239.833L291.857 239.839C292.73 242.923 292.501 246.405 290.82 249.474L290.818 249.478C287.741 255.012 281.148 257.362 275.375 255.254C275.745 257.989 275.207 260.7 273.937 263.019L273.934 263.025C272.366 265.819 269.738 268.123 266.381 269.106L266.377 269.107C260.286 270.848 253.964 267.853 251.374 262.285C249.701 264.479 247.403 266.017 244.864 266.76L244.859 266.762C241.773 267.635 238.288 267.407 235.217 265.73L235.213 265.728C229.677 262.656 227.33 256.07 229.438 250.302C226.702 250.672 223.99 250.134 221.671 248.868L221.665 248.864C218.869 247.299 216.564 244.675 215.582 241.32L215.58 241.316C213.841 235.23 216.842 228.913 222.413 226.322C217.524 222.603 215.949 215.791 218.953 210.219L218.956 210.215C220.637 207.148 223.45 205.076 226.518 204.143L226.524 204.141C229.062 203.398 231.826 203.45 234.419 204.396C233.597 198.31 237.306 192.378 243.37 190.558L243.374 190.556C246.731 189.573 250.185 190.092 253.015 191.601L253.021 191.605C255.34 192.874 257.257 194.864 258.42 197.365C262.144 192.476 268.963 190.899 274.539 193.897L274.543 193.899C277.611 195.574 279.683 198.385 280.615 201.45L280.617 201.457Z" fill="#A4FC5A" stroke="#00896B" stroke-width="1.29921"/>
<path d="M298.806 206.653C299.548 209.189 299.494 211.95 298.547 214.541C304.637 213.716 310.573 217.418 312.392 223.478L312.437 223.627L312.434 223.639C313.358 226.946 312.831 230.338 311.341 233.124L311.338 233.129C310.068 235.447 308.074 237.364 305.569 238.528C307.764 240.198 309.301 242.494 310.044 245.03L310.046 245.036C310.918 248.119 310.689 251.601 309.009 254.671L309.007 254.674C305.93 260.208 299.337 262.558 293.564 260.451C293.934 263.185 293.395 265.897 292.126 268.215L292.122 268.221C290.554 271.015 287.927 273.319 284.569 274.303L284.566 274.304C278.474 276.044 272.153 273.05 269.562 267.482C267.889 269.675 265.591 271.213 263.053 271.957L263.047 271.959C259.961 272.832 256.477 272.604 253.405 270.926L253.402 270.924C247.866 267.853 245.518 261.267 247.626 255.498C244.891 255.869 242.178 255.331 239.859 254.064L239.853 254.061C237.058 252.495 234.753 249.871 233.77 246.516L233.769 246.513C232.03 240.427 235.03 234.11 240.602 231.518C235.713 227.799 234.138 220.988 237.141 215.415L237.144 215.411C238.826 212.345 241.638 210.272 244.706 209.339L244.713 209.337C247.251 208.594 250.015 208.646 252.608 209.592C251.785 203.507 255.494 197.574 261.559 195.754L261.563 195.753C264.919 194.77 268.374 195.289 271.203 196.798L271.209 196.801C273.529 198.07 275.445 200.06 276.609 202.561C280.333 197.673 287.151 196.095 292.727 199.093L292.732 199.095C295.8 200.771 297.872 203.582 298.804 206.647L298.806 206.653Z" fill="#A4FC5A" stroke="#00896B" stroke-width="1.29921"/>
<path d="M425.262 148.622C426.004 151.158 425.95 153.919 425.003 156.51C431.093 155.685 437.029 159.387 438.848 165.447L438.893 165.596L438.89 165.608C439.814 168.915 439.287 172.307 437.797 175.092L437.794 175.098C436.524 177.416 434.53 179.333 432.025 180.496C434.22 182.167 435.758 184.463 436.5 186.999L436.502 187.004C437.374 190.088 437.145 193.57 435.465 196.64L435.463 196.643C432.386 202.177 425.793 204.527 420.02 202.42C420.39 205.154 419.851 207.865 418.582 210.184L418.578 210.19C417.01 212.984 414.383 215.288 411.025 216.271L411.022 216.272C404.93 218.013 398.609 215.018 396.018 209.45C394.345 211.644 392.047 213.182 389.509 213.926L389.503 213.927C386.417 214.8 382.933 214.573 379.862 212.895L379.858 212.893C374.322 209.822 371.974 203.236 374.082 197.467C371.347 197.838 368.634 197.3 366.315 196.033L366.309 196.03C363.514 194.464 361.209 191.84 360.226 188.485L360.225 188.482C358.486 182.396 361.486 176.079 367.058 173.487C362.169 169.768 360.594 162.956 363.597 157.384L363.6 157.38C365.282 154.313 368.094 152.241 371.162 151.308L371.169 151.306C373.707 150.563 376.471 150.615 379.064 151.561C378.241 145.476 381.95 139.543 388.015 137.723L388.019 137.722C391.375 136.738 394.83 137.257 397.659 138.767L397.665 138.77C399.985 140.039 401.901 142.029 403.065 144.53C406.789 139.641 413.607 138.064 419.183 141.062L419.188 141.064C422.256 142.74 424.328 145.55 425.26 148.616L425.262 148.622Z" fill="#A4FC5A" stroke="#00896B" stroke-width="1.29921"/>
<path d="M324.79 202.323C325.533 204.858 325.479 207.62 324.531 210.211C330.621 209.386 336.557 213.088 338.376 219.148L338.421 219.297L338.418 219.309C339.342 222.616 338.816 226.007 337.326 228.793L337.322 228.798C336.053 231.117 334.058 233.034 331.554 234.197C333.748 235.868 335.286 238.163 336.029 240.699L336.031 240.705C336.903 243.789 336.674 247.271 334.993 250.34L334.991 250.344C331.914 255.877 325.322 258.228 319.548 256.12C319.918 258.855 319.38 261.566 318.11 263.885L318.107 263.891C316.539 266.685 313.911 268.989 310.554 269.972L310.55 269.973C304.459 271.714 298.137 268.719 295.547 263.151C293.874 265.345 291.576 266.883 289.038 267.626L289.032 267.628C285.946 268.501 282.461 268.273 279.39 266.596L279.386 266.594C273.85 263.522 271.503 256.936 273.611 251.168C270.875 251.538 268.163 251 265.844 249.734L265.838 249.73C263.042 248.165 260.737 245.54 259.755 242.186L259.754 242.182C258.014 236.096 261.015 229.779 266.586 227.188C261.697 223.469 260.122 216.657 263.126 211.085L263.129 211.081C264.81 208.014 267.623 205.942 270.691 205.009L270.697 205.007C273.235 204.263 275.999 204.316 278.592 205.262C277.77 199.176 281.479 193.244 287.543 191.424L287.547 191.422C290.904 190.439 294.359 190.958 297.188 192.467L297.194 192.471C299.513 193.74 301.43 195.73 302.593 198.231C306.317 193.342 313.136 191.765 318.712 194.763L318.716 194.765C321.784 196.44 323.856 199.251 324.788 202.316L324.79 202.323Z" fill="#A4FC5A" stroke="#00896B" stroke-width="1.29921"/>
<path d="M351.641 193.662C352.383 196.197 352.329 198.958 351.382 201.549C357.472 200.724 363.408 204.426 365.227 210.486L365.272 210.635L365.269 210.647C366.193 213.954 365.666 217.346 364.176 220.132L364.173 220.137C362.903 222.455 360.909 224.372 358.404 225.536C360.599 227.206 362.136 229.502 362.879 232.038L362.881 232.044C363.753 235.127 363.524 238.609 361.844 241.679L361.842 241.682C358.765 247.216 352.172 249.566 346.398 247.459C346.769 250.193 346.23 252.905 344.961 255.223L344.957 255.229C343.389 258.023 340.762 260.327 337.404 261.311L337.401 261.312C331.309 263.052 324.988 260.058 322.397 254.49C320.724 256.684 318.426 258.221 315.888 258.965L315.882 258.967C312.796 259.84 309.312 259.612 306.24 257.934L306.237 257.932C300.701 254.861 298.353 248.275 300.461 242.506C297.726 242.877 295.013 242.339 292.694 241.072L292.688 241.069C289.893 239.504 287.588 236.879 286.605 233.525L286.604 233.521C284.865 227.435 287.865 221.118 293.437 218.527C288.548 214.807 286.973 207.996 289.976 202.423L289.979 202.419C291.661 199.353 294.473 197.28 297.541 196.347L297.548 196.346C300.086 195.602 302.85 195.654 305.443 196.6C304.62 190.515 308.329 184.582 314.394 182.762L314.398 182.761C317.754 181.778 321.209 182.297 324.038 183.806L324.044 183.809C326.364 185.078 328.28 187.068 329.444 189.569C333.168 184.681 339.986 183.103 345.562 186.102L345.567 186.103C348.635 187.779 350.707 190.59 351.639 193.655L351.641 193.662Z" fill="#A4FC5A" stroke="#00896B" stroke-width="1.29921"/>
<path d="M378.49 185C379.233 187.535 379.179 190.297 378.231 192.888C384.321 192.063 390.258 195.765 392.077 201.825L392.121 201.974L392.119 201.986C393.042 205.293 392.516 208.685 391.026 211.47L391.022 211.475C389.753 213.794 387.758 215.711 385.254 216.874C387.448 218.545 388.986 220.84 389.729 223.376L389.731 223.382C390.603 226.466 390.374 229.948 388.693 233.017L388.691 233.021C385.614 238.554 379.022 240.905 373.248 238.797C373.618 241.532 373.08 244.243 371.81 246.562L371.807 246.568C370.239 249.362 367.611 251.666 364.254 252.649L364.25 252.65C358.159 254.391 351.837 251.396 349.247 245.828C347.574 248.022 345.276 249.56 342.738 250.303L342.732 250.305C339.646 251.178 336.161 250.95 333.09 249.273L333.086 249.271C327.55 246.199 325.203 239.613 327.311 233.845C324.575 234.215 321.863 233.677 319.544 232.411L319.538 232.407C316.742 230.842 314.437 228.217 313.455 224.863L313.454 224.859C311.715 218.773 314.715 212.456 320.286 209.865C315.397 206.146 313.822 199.334 316.826 193.762L316.829 193.758C318.51 190.691 321.323 188.619 324.391 187.686L324.397 187.684C326.935 186.94 329.699 186.993 332.292 187.939C331.47 181.853 335.179 175.921 341.243 174.101L341.247 174.099C344.604 173.116 348.059 173.635 350.888 175.144L350.894 175.148C353.213 176.417 355.13 178.407 356.293 180.908C360.017 176.019 366.836 174.442 372.412 177.44L372.416 177.442C375.484 179.117 377.556 181.928 378.488 184.993L378.49 185Z" fill="#A4FC5A" stroke="#00896B" stroke-width="1.29921"/>
<path d="M401.876 166.811C402.619 169.347 402.565 172.108 401.617 174.699C407.707 173.874 413.643 177.576 415.462 183.636L415.507 183.785L415.504 183.797C416.428 187.104 415.901 190.496 414.412 193.281L414.408 193.286C413.139 195.605 411.144 197.522 408.64 198.685C410.834 200.356 412.372 202.652 413.115 205.188L413.116 205.193C413.989 208.277 413.76 211.759 412.079 214.829L412.077 214.832C409 220.366 402.407 222.716 396.634 220.609C397.004 223.343 396.465 226.054 395.196 228.373L395.193 228.379C393.625 231.173 390.997 233.477 387.64 234.46L387.636 234.461C381.545 236.202 375.223 233.207 372.633 227.639C370.96 229.833 368.662 231.371 366.123 232.115L366.118 232.116C363.032 232.989 359.547 232.762 356.476 231.084L356.472 231.082C350.936 228.011 348.589 221.425 350.697 215.656C347.961 216.027 345.249 215.489 342.929 214.222L342.923 214.219C340.128 212.653 337.823 210.029 336.84 206.674L336.839 206.67C335.1 200.584 338.101 194.268 343.672 191.676C338.783 187.957 337.208 181.145 340.212 175.573L340.215 175.569C341.896 172.502 344.709 170.43 347.776 169.497L347.783 169.495C350.321 168.752 353.085 168.804 355.678 169.75C354.855 163.665 358.564 157.732 364.629 155.912L364.633 155.911C367.99 154.927 371.444 155.446 374.273 156.956L374.28 156.959C376.599 158.228 378.516 160.218 379.679 162.719C383.403 157.83 390.221 156.253 395.798 159.251L395.802 159.253C398.87 160.929 400.942 163.739 401.874 166.805L401.876 166.811Z" fill="#A4FC5A" stroke="#00896B" stroke-width="1.29921"/>
</g>
<defs>
<clipPath id="clip0_2224_18387">
<rect width="363" height="372" rx="16" fill="white"/>
</clipPath>
<clipPath id="clip1_2224_18387">
<rect width="34.3987" height="43.3518" fill="white" transform="translate(227.175 188.639) rotate(-90)"/>
</clipPath>
</defs>
</svg>
