<svg width="497" height="50" viewBox="0 0 497 50" fill="none" xmlns="http://www.w3.org/2000/svg">
<path d="M442.5 13.0593V38.2593H432.75V35.0093C431.817 36.3093 430.733 37.3093 429.5 38.0093C428.267 38.6759 426.8 39.0093 425.1 39.0093C422.333 39.0093 420.217 38.2093 418.75 36.6093C417.283 34.9759 416.55 32.6426 416.55 29.6093V13.0593H426.3V27.4593C426.3 28.7926 426.55 29.7593 427.05 30.3593C427.583 30.9259 428.367 31.2093 429.4 31.2093C430.5 31.2093 431.333 30.8759 431.9 30.2093C432.467 29.5426 432.75 28.5259 432.75 27.1593V13.0593H442.5ZM455.348 39.2093C452.548 39.2093 450.198 38.7759 448.298 37.9093C446.398 37.0426 445.065 35.7593 444.298 34.0593C443.765 32.7926 443.515 31.4426 443.548 30.0093H453.098C453.098 30.7426 453.198 31.3426 453.398 31.8093C453.598 32.2093 453.865 32.5093 454.198 32.7093C454.531 32.8759 454.948 32.9593 455.448 32.9593C456.315 32.9593 456.865 32.6759 457.098 32.1093C457.198 31.8426 457.248 31.5926 457.248 31.3593C457.248 31.0593 457.198 30.8093 457.098 30.6093C456.865 30.1093 456.431 29.7259 455.798 29.4593C455.198 29.1593 454.515 28.9093 453.748 28.7093C452.981 28.5093 452.481 28.3759 452.248 28.3093C450.515 27.8426 449.015 27.2593 447.748 26.5593C446.481 25.8259 445.565 24.8259 444.998 23.5593C444.798 23.0926 444.648 22.6259 444.548 22.1593C444.448 21.6926 444.398 21.1593 444.398 20.5593C444.398 19.2593 444.631 18.1259 445.098 17.1593C445.831 15.5593 447.115 14.3593 448.948 13.5593C450.781 12.7259 452.965 12.3093 455.498 12.3093C458.031 12.3093 460.198 12.7093 461.998 13.5093C463.831 14.2759 465.098 15.4593 465.798 17.0593C466.265 18.0593 466.498 19.1926 466.498 20.4593H457.348C457.348 19.8259 457.248 19.3093 457.048 18.9093C456.748 18.2759 456.198 17.9593 455.398 17.9593C454.665 17.9593 454.181 18.1926 453.948 18.6593C453.848 18.8593 453.798 19.0759 453.798 19.3093C453.798 19.5759 453.848 19.8093 453.948 20.0093C454.181 20.5093 454.715 20.9259 455.548 21.2593C456.381 21.5926 457.548 21.9593 459.048 22.3593C461.048 22.8926 462.698 23.5426 463.998 24.3093C465.331 25.0426 466.298 26.0759 466.898 27.4093C467.265 28.1759 467.448 29.1759 467.448 30.4093C467.448 31.8093 467.231 32.9926 466.798 33.9593C465.998 35.7259 464.581 37.0426 462.548 37.9093C460.548 38.7759 458.148 39.2093 455.348 39.2093ZM484.386 31.2593C484.82 30.9259 485.086 30.4593 485.186 29.8593H495.136C494.903 32.1926 493.936 34.1259 492.236 35.6593C491.003 36.7926 489.486 37.6426 487.686 38.2093C485.886 38.7426 483.936 39.0093 481.836 39.0093C478.636 39.0093 475.886 38.4093 473.586 37.2093C471.32 35.9759 469.67 34.2093 468.636 31.9093C467.87 30.0759 467.486 27.9593 467.486 25.5593C467.486 24.2593 467.586 23.1259 467.786 22.1593C467.986 21.1926 468.286 20.2759 468.686 19.4093C469.686 17.1426 471.27 15.3926 473.436 14.1593C475.603 12.9259 478.186 12.3093 481.186 12.3093C484.286 12.3093 486.936 12.9426 489.136 14.2093C491.336 15.4759 492.953 17.2593 493.986 19.5593C494.52 20.7593 494.87 21.9426 495.036 23.1093C495.203 24.2759 495.286 25.8759 495.286 27.9093H477.386C477.42 28.8426 477.57 29.5926 477.836 30.1593C478.103 30.8259 478.553 31.3093 479.186 31.6093C479.82 31.9093 480.653 32.0593 481.686 32.0593C482.92 32.0593 483.82 31.7926 484.386 31.2593ZM481.386 18.9093C479.62 18.9093 478.436 19.5426 477.836 20.8093C477.703 21.1426 477.603 21.4593 477.536 21.7593C477.47 22.0593 477.42 22.4259 477.386 22.8593H485.386C485.386 22.3926 485.353 22.0259 485.286 21.7593C485.22 21.4593 485.12 21.1593 484.986 20.8593C484.386 19.5593 483.186 18.9093 481.386 18.9093Z" fill="#060F21"/>
<path d="M415 26.4086C415 30.8403 413.059 34.7879 410.026 37.3803L399.398 47.2593V40.3897C392.945 39.3306 388 33.4765 388 26.4086C388 18.5908 394.045 12.2593 401.503 12.2593C408.962 12.2593 415 18.5908 415 26.4086Z" fill="#060F21"/>
<path d="M2.25 2.95928H18.7C21.5667 2.95928 23.9 3.39261 25.7 4.25928C27.5333 5.12594 28.85 6.49261 29.65 8.35927C30.3833 9.92594 30.75 11.8759 30.75 14.2093C30.75 15.1759 30.65 16.1426 30.45 17.1093C30.2833 18.0426 30.0167 18.8926 29.65 19.6593C27.9833 23.4259 24.3333 25.3093 18.7 25.3093H12.95V38.2593H2.25V2.95928ZM15.55 17.9093C17.55 17.9093 18.8167 17.3593 19.35 16.2593C19.6167 15.6259 19.75 14.9593 19.75 14.2593C19.75 13.5259 19.6167 12.8593 19.35 12.2593C19.0833 11.6926 18.6333 11.2926 18 11.0593C17.3667 10.7926 16.5333 10.6593 15.5 10.6593H12.95V17.9093H15.55ZM36.45 11.0593C35.5167 11.0593 34.6667 10.8593 33.9 10.4593C33.1667 10.0593 32.5833 9.50928 32.15 8.80928C31.75 8.07594 31.55 7.25928 31.55 6.35928C31.55 5.49261 31.75 4.70928 32.15 4.00927C32.5833 3.30928 33.1667 2.75928 33.9 2.35927C34.6667 1.95928 35.5167 1.75928 36.45 1.75928C37.3833 1.75928 38.2167 1.95928 38.95 2.35927C39.6833 2.75928 40.2667 3.30928 40.7 4.00927C41.1333 4.70928 41.35 5.49261 41.35 6.35928C41.35 7.25928 41.1333 8.07594 40.7 8.80928C40.2667 9.50928 39.6833 10.0593 38.95 10.4593C38.2167 10.8593 37.3833 11.0593 36.45 11.0593ZM31.55 13.0593H41.3V38.2593H31.55V13.0593ZM70.1313 13.0593V36.5593C70.1313 39.0926 69.7313 41.2593 68.9313 43.0593C67.9979 45.1259 66.4979 46.6426 64.4313 47.6093C62.3979 48.6093 59.7813 49.1093 56.5813 49.1093C51.7813 49.1093 48.1479 48.0093 45.6813 45.8093C44.8146 45.0759 44.1313 44.2426 43.6313 43.3093C43.1646 42.3759 42.8146 41.3093 42.5813 40.1093H52.8313C52.9313 40.5426 53.1813 40.9426 53.5813 41.3093C54.2146 41.8759 55.1813 42.1593 56.4813 42.1593C58.3146 42.1593 59.5146 41.5593 60.0813 40.3593C60.2813 39.8593 60.3813 39.2426 60.3813 38.5093V34.8093C59.5146 36.0093 58.4813 36.9259 57.2813 37.5593C56.0813 38.1593 54.6146 38.4593 52.8813 38.4593C50.7146 38.4593 48.8313 37.9593 47.2313 36.9593C45.6646 35.9593 44.4479 34.5259 43.5813 32.6593C43.1146 31.6259 42.7813 30.5426 42.5813 29.4093C42.3813 28.2759 42.2813 26.9426 42.2813 25.4093C42.2813 23.8759 42.3813 22.5426 42.5813 21.4093C42.7813 20.2759 43.1146 19.1926 43.5813 18.1593C44.4479 16.2593 45.6646 14.8093 47.2313 13.8093C48.8313 12.8093 50.7146 12.3093 52.8813 12.3093C54.6813 12.3093 56.1979 12.6593 57.4313 13.3593C58.6646 14.0259 59.7146 14.9926 60.5813 16.2593V13.0593H70.1313ZM56.6313 31.0093C59.1646 31.0093 60.4313 29.4759 60.4313 26.4093V24.7593C60.4313 21.6593 59.1646 20.1093 56.6313 20.1093C55.7646 20.1093 55.0313 20.2759 54.4313 20.6093C53.8646 20.9093 53.4479 21.3759 53.1813 22.0093C52.9813 22.4759 52.8479 22.9593 52.7813 23.4593C52.7146 23.9593 52.6813 24.6093 52.6813 25.4093C52.6813 26.3759 52.7146 27.1259 52.7813 27.6593C52.8479 28.1593 52.9813 28.6426 53.1813 29.1093C53.4479 29.7426 53.8646 30.2259 54.4313 30.5593C55.0313 30.8593 55.7646 31.0093 56.6313 31.0093ZM99.0023 13.0593V36.5593C99.0023 39.0926 98.6023 41.2593 97.8023 43.0593C96.869 45.1259 95.369 46.6426 93.3023 47.6093C91.269 48.6093 88.6523 49.1093 85.4523 49.1093C80.6523 49.1093 77.019 48.0093 74.5523 45.8093C73.6857 45.0759 73.0023 44.2426 72.5023 43.3093C72.0357 42.3759 71.6857 41.3093 71.4523 40.1093H81.7023C81.8023 40.5426 82.0523 40.9426 82.4523 41.3093C83.0857 41.8759 84.0523 42.1593 85.3523 42.1593C87.1857 42.1593 88.3857 41.5593 88.9523 40.3593C89.1523 39.8593 89.2523 39.2426 89.2523 38.5093V34.8093C88.3857 36.0093 87.3523 36.9259 86.1523 37.5593C84.9523 38.1593 83.4857 38.4593 81.7523 38.4593C79.5857 38.4593 77.7023 37.9593 76.1023 36.9593C74.5357 35.9593 73.319 34.5259 72.4523 32.6593C71.9857 31.6259 71.6523 30.5426 71.4523 29.4093C71.2523 28.2759 71.1523 26.9426 71.1523 25.4093C71.1523 23.8759 71.2523 22.5426 71.4523 21.4093C71.6523 20.2759 71.9857 19.1926 72.4523 18.1593C73.319 16.2593 74.5357 14.8093 76.1023 13.8093C77.7023 12.8093 79.5857 12.3093 81.7523 12.3093C83.5523 12.3093 85.069 12.6593 86.3023 13.3593C87.5357 14.0259 88.5857 14.9926 89.4523 16.2593V13.0593H99.0023ZM85.5023 31.0093C88.0357 31.0093 89.3023 29.4759 89.3023 26.4093V24.7593C89.3023 21.6593 88.0357 20.1093 85.5023 20.1093C84.6357 20.1093 83.9023 20.2759 83.3023 20.6093C82.7357 20.9093 82.319 21.3759 82.0523 22.0093C81.8523 22.4759 81.719 22.9593 81.6523 23.4593C81.5857 23.9593 81.5523 24.6093 81.5523 25.4093C81.5523 26.3759 81.5857 27.1259 81.6523 27.6593C81.719 28.1593 81.8523 28.6426 82.0523 29.1093C82.319 29.7426 82.7357 30.2259 83.3023 30.5593C83.9023 30.8593 84.6357 31.0093 85.5023 31.0093ZM128.123 13.0593L118.273 38.2593L114.273 48.3593H104.623L108.523 38.3093L98.8734 13.0593H109.273L113.723 27.8093L117.973 13.0593H128.123ZM127.061 13.0593H137.461L141.761 27.2093L146.011 13.0593H156.461L147.211 38.2593H136.261L127.061 13.0593ZM171.004 31.2593C171.437 30.9259 171.704 30.4593 171.804 29.8593H181.754C181.52 32.1926 180.554 34.1259 178.854 35.6593C177.62 36.7926 176.104 37.6426 174.304 38.2093C172.504 38.7426 170.554 39.0093 168.454 39.0093C165.254 39.0093 162.504 38.4093 160.204 37.2093C157.937 35.9759 156.287 34.2093 155.254 31.9093C154.487 30.0759 154.104 27.9593 154.104 25.5593C154.104 24.2593 154.204 23.1259 154.404 22.1593C154.604 21.1926 154.904 20.2759 155.304 19.4093C156.304 17.1426 157.887 15.3926 160.054 14.1593C162.22 12.9259 164.804 12.3093 167.804 12.3093C170.904 12.3093 173.554 12.9426 175.754 14.2093C177.954 15.4759 179.57 17.2593 180.604 19.5593C181.137 20.7593 181.487 21.9426 181.654 23.1093C181.82 24.2759 181.904 25.8759 181.904 27.9093H164.004C164.037 28.8426 164.187 29.5926 164.454 30.1593C164.72 30.8259 165.17 31.3093 165.804 31.6093C166.437 31.9093 167.27 32.0593 168.304 32.0593C169.537 32.0593 170.437 31.7926 171.004 31.2593ZM168.004 18.9093C166.237 18.9093 165.054 19.5426 164.454 20.8093C164.32 21.1426 164.22 21.4593 164.154 21.7593C164.087 22.0593 164.037 22.4259 164.004 22.8593H172.004C172.004 22.3926 171.97 22.0259 171.904 21.7593C171.837 21.4593 171.737 21.1593 171.604 20.8593C171.004 19.5593 169.804 18.9093 168.004 18.9093ZM193.75 39.2093C190.95 39.2093 188.6 38.7759 186.7 37.9093C184.8 37.0426 183.467 35.7593 182.7 34.0593C182.167 32.7926 181.917 31.4426 181.95 30.0093H191.5C191.5 30.7426 191.6 31.3426 191.8 31.8093C192 32.2093 192.267 32.5093 192.6 32.7093C192.934 32.8759 193.35 32.9593 193.85 32.9593C194.717 32.9593 195.267 32.6759 195.5 32.1093C195.6 31.8426 195.65 31.5926 195.65 31.3593C195.65 31.0593 195.6 30.8093 195.5 30.6093C195.267 30.1093 194.834 29.7259 194.2 29.4593C193.6 29.1593 192.917 28.9093 192.15 28.7093C191.384 28.5093 190.884 28.3759 190.65 28.3093C188.917 27.8426 187.417 27.2593 186.15 26.5593C184.884 25.8259 183.967 24.8259 183.4 23.5593C183.2 23.0926 183.05 22.6259 182.95 22.1593C182.85 21.6926 182.8 21.1593 182.8 20.5593C182.8 19.2593 183.034 18.1259 183.5 17.1593C184.234 15.5593 185.517 14.3593 187.35 13.5593C189.184 12.7259 191.367 12.3093 193.9 12.3093C196.434 12.3093 198.6 12.7093 200.4 13.5093C202.234 14.2759 203.5 15.4593 204.2 17.0593C204.667 18.0593 204.9 19.1926 204.9 20.4593H195.75C195.75 19.8259 195.65 19.3093 195.45 18.9093C195.15 18.2759 194.6 17.9593 193.8 17.9593C193.067 17.9593 192.584 18.1926 192.35 18.6593C192.25 18.8593 192.2 19.0759 192.2 19.3093C192.2 19.5759 192.25 19.8093 192.35 20.0093C192.584 20.5093 193.117 20.9259 193.95 21.2593C194.784 21.5926 195.95 21.9593 197.45 22.3593C199.45 22.8926 201.1 23.5426 202.4 24.3093C203.734 25.0426 204.7 26.0759 205.3 27.4093C205.667 28.1759 205.85 29.1759 205.85 30.4093C205.85 31.8093 205.634 32.9926 205.2 33.9593C204.4 35.7259 202.984 37.0426 200.95 37.9093C198.95 38.7759 196.55 39.2093 193.75 39.2093ZM217.446 38.7593C215.312 38.7593 213.596 38.4759 212.296 37.9093C210.996 37.3093 210.029 36.3759 209.396 35.1093C208.796 33.8093 208.496 32.0759 208.496 29.9093V20.6093H205.396V13.0593H208.496V7.10928H218.246V13.0593H223.546V20.6093H218.246V28.2093C218.246 29.3093 218.446 30.0759 218.846 30.5093C219.279 30.9093 219.979 31.1093 220.946 31.1093C221.612 31.1093 222.429 31.0093 223.396 30.8093V38.1593C221.562 38.5593 219.579 38.7593 217.446 38.7593ZM249.317 39.2593C245.384 39.2593 242.034 38.4593 239.267 36.8593C236.501 35.2593 234.434 32.9426 233.067 29.9093C231.867 27.3093 231.267 24.2093 231.267 20.6093C231.267 17.0759 231.851 13.9926 233.017 11.3593C234.384 8.32594 236.451 6.00928 239.217 4.40928C242.017 2.77594 245.384 1.95928 249.317 1.95928C253.217 1.95928 256.551 2.75928 259.317 4.35928C262.117 5.95927 264.201 8.25928 265.567 11.2593C266.767 14.0259 267.367 17.1426 267.367 20.6093C267.367 24.1426 266.751 27.2759 265.517 30.0093C264.151 32.9759 262.084 35.2593 259.317 36.8593C256.551 38.4593 253.217 39.2593 249.317 39.2593ZM249.317 29.8593C250.784 29.8593 251.984 29.5593 252.917 28.9593C253.884 28.3593 254.634 27.4593 255.167 26.2593C255.467 25.5926 255.667 24.8259 255.767 23.9593C255.901 23.0926 255.967 21.9759 255.967 20.6093C255.967 19.2426 255.901 18.1259 255.767 17.2593C255.667 16.3593 255.467 15.5593 255.167 14.8593C254.634 13.6926 253.884 12.8259 252.917 12.2593C251.984 11.6593 250.784 11.3593 249.317 11.3593C247.884 11.3593 246.684 11.6593 245.717 12.2593C244.751 12.8593 244.001 13.7426 243.467 14.9093C243.167 15.5759 242.951 16.3593 242.817 17.2593C242.717 18.1259 242.667 19.2426 242.667 20.6093C242.667 21.9426 242.734 23.0593 242.867 23.9593C243.001 24.8259 243.217 25.6093 243.517 26.3093C244.051 27.4759 244.784 28.3593 245.717 28.9593C246.684 29.5593 247.884 29.8593 249.317 29.8593ZM295.246 18.3093C296.179 20.3426 296.646 22.7926 296.646 25.6593C296.646 28.5259 296.179 30.9759 295.246 33.0093C294.379 34.9093 293.129 36.3926 291.496 37.4593C289.863 38.4926 287.946 39.0093 285.746 39.0093C284.146 39.0093 282.763 38.7426 281.596 38.2093C280.429 37.6426 279.413 36.7593 278.546 35.5593V48.3593H268.796V13.0593H278.296V16.1093C279.163 14.8093 280.196 13.8593 281.396 13.2593C282.629 12.6259 284.079 12.3093 285.746 12.3093C287.946 12.3093 289.863 12.8426 291.496 13.9093C293.129 14.9426 294.379 16.4093 295.246 18.3093ZM285.746 29.1093C286.079 28.3426 286.246 27.1926 286.246 25.6593C286.246 24.8259 286.196 24.1259 286.096 23.5593C286.029 22.9926 285.913 22.5093 285.746 22.1093C285.146 20.8093 283.996 20.1593 282.296 20.1593C280.996 20.1593 280.013 20.5593 279.346 21.3593C278.713 22.1593 278.396 23.3426 278.396 24.9093V26.3093C278.396 27.8426 278.713 29.0259 279.346 29.8593C280.013 30.6593 280.996 31.0593 282.296 31.0593C283.996 31.0593 285.146 30.4093 285.746 29.1093ZM313.859 31.2593C314.292 30.9259 314.559 30.4593 314.659 29.8593H324.609C324.376 32.1926 323.409 34.1259 321.709 35.6593C320.476 36.7926 318.959 37.6426 317.159 38.2093C315.359 38.7426 313.409 39.0093 311.309 39.0093C308.109 39.0093 305.359 38.4093 303.059 37.2093C300.792 35.9759 299.142 34.2093 298.109 31.9093C297.342 30.0759 296.959 27.9593 296.959 25.5593C296.959 24.2593 297.059 23.1259 297.259 22.1593C297.459 21.1926 297.759 20.2759 298.159 19.4093C299.159 17.1426 300.742 15.3926 302.909 14.1593C305.076 12.9259 307.659 12.3093 310.659 12.3093C313.759 12.3093 316.409 12.9426 318.609 14.2093C320.809 15.4759 322.426 17.2593 323.459 19.5593C323.992 20.7593 324.342 21.9426 324.509 23.1093C324.676 24.2759 324.759 25.8759 324.759 27.9093H306.859C306.892 28.8426 307.042 29.5926 307.309 30.1593C307.576 30.8259 308.026 31.3093 308.659 31.6093C309.292 31.9093 310.126 32.0593 311.159 32.0593C312.392 32.0593 313.292 31.7926 313.859 31.2593ZM310.859 18.9093C309.092 18.9093 307.909 19.5426 307.309 20.8093C307.176 21.1426 307.076 21.4593 307.009 21.7593C306.942 22.0593 306.892 22.4259 306.859 22.8593H314.859C314.859 22.3926 314.826 22.0259 314.759 21.7593C314.692 21.4593 314.592 21.1593 314.459 20.8593C313.859 19.5593 312.659 18.9093 310.859 18.9093ZM343.206 12.3093C345.939 12.3093 348.039 13.1259 349.506 14.7593C351.006 16.3926 351.756 18.7259 351.756 21.7593V38.2593H342.006V23.8593C342.006 22.5259 341.739 21.5759 341.206 21.0093C340.706 20.4093 339.923 20.1093 338.856 20.1093C337.756 20.1093 336.923 20.4426 336.356 21.1093C335.823 21.7759 335.556 22.8093 335.556 24.2093V38.2593H325.806V13.0593H335.556V16.2593C336.489 14.9593 337.573 13.9759 338.806 13.3093C340.039 12.6426 341.506 12.3093 343.206 12.3093ZM354.004 2.95928H364.704V16.2093H375.904V2.95928H386.604V38.2593H375.904V24.9093H364.704V38.2593H354.004V2.95928Z" fill="#060F21"/>
</svg>
