<svg xmlns="http://www.w3.org/2000/svg" width="32" height="30" viewBox="0 0 32 30" fill="none">
  <path d="M18.6747 9.55278C18.1489 8.95249 17.8591 8.18157 17.8593 7.38354H15.4824V16.922C15.4641 17.4382 15.2461 17.9271 14.8745 18.2858C14.5029 18.6445 14.0066 18.845 13.4901 18.8451C12.3978 18.8451 11.4901 17.9528 11.4901 16.8451C11.4901 15.522 12.767 14.5297 14.0824 14.9374V12.5066C11.4285 12.1528 9.10547 14.2143 9.10547 16.8451C9.10547 19.4066 11.2285 21.2297 13.4824 21.2297C15.8978 21.2297 17.8593 19.2682 17.8593 16.8451V12.0066C18.8232 12.6988 19.9804 13.0702 21.167 13.0682V10.6912C21.167 10.6912 19.7209 10.7605 18.6747 9.55278Z" fill="#B0C4EC"/>
</svg>
