<svg width="150" height="150" viewBox="0 0 150 150" fill="none" xmlns="http://www.w3.org/2000/svg">
<foreignObject x="-4" y="-4" width="158" height="158"><div xmlns="http://www.w3.org/1999/xhtml" style="backdrop-filter:blur(2px);clip-path:url(#bgblur_0_1365_855_clip_path);height:100%;width:100%"></div></foreignObject><path data-figma-bg-blur-radius="4" d="M150 74.9552C149.921 63.0334 140.581 53.3347 128.817 52.7026C132.62 48.467 134.543 43.1251 134.543 37.7674C134.485 32.0883 132.362 26.2933 128.006 21.9366C119.519 13.5602 106.058 13.3073 97.2922 21.1832C96.9866 15.4989 94.5686 10.3624 90.7808 6.56938C86.7243 2.59193 81.1242 0 74.9605 0C63.0387 0.0790222 53.34 9.41945 52.7078 21.1832C48.4723 17.3796 43.1304 15.4567 37.7727 15.4567C32.0936 15.5147 26.2986 17.6378 21.9366 21.9945C13.5602 30.4815 13.3074 43.9416 21.1833 52.7078C9.41949 53.34 0.0790222 63.0334 0 74.9605C0 81.1242 2.59725 86.7243 6.56943 90.7807C10.3572 94.5685 15.4989 96.9866 21.1833 97.2922C13.3127 106.058 13.5602 119.518 21.9366 128.005C26.2986 132.368 32.0883 134.491 37.7674 134.543C43.1251 134.543 48.467 132.615 52.7026 128.817C53.3348 140.581 63.0281 149.921 74.9552 150C81.119 150 86.719 147.403 90.7755 143.431C94.5633 139.643 96.9814 134.501 97.2869 128.817C106.053 136.693 119.513 136.44 128 128.063C132.362 123.701 134.485 117.912 134.538 112.233C134.538 106.875 132.61 101.533 128.811 97.2974C134.496 96.9919 139.638 94.5738 143.425 90.786C147.403 86.7295 149.995 81.1295 149.995 74.9658L150 74.9552Z" fill="#4EAAF5"/>
<defs>
<clipPath id="bgblur_0_1365_855_clip_path" transform="translate(4 4)"><path d="M150 74.9552C149.921 63.0334 140.581 53.3347 128.817 52.7026C132.62 48.467 134.543 43.1251 134.543 37.7674C134.485 32.0883 132.362 26.2933 128.006 21.9366C119.519 13.5602 106.058 13.3073 97.2922 21.1832C96.9866 15.4989 94.5686 10.3624 90.7808 6.56938C86.7243 2.59193 81.1242 0 74.9605 0C63.0387 0.0790222 53.34 9.41945 52.7078 21.1832C48.4723 17.3796 43.1304 15.4567 37.7727 15.4567C32.0936 15.5147 26.2986 17.6378 21.9366 21.9945C13.5602 30.4815 13.3074 43.9416 21.1833 52.7078C9.41949 53.34 0.0790222 63.0334 0 74.9605C0 81.1242 2.59725 86.7243 6.56943 90.7807C10.3572 94.5685 15.4989 96.9866 21.1833 97.2922C13.3127 106.058 13.5602 119.518 21.9366 128.005C26.2986 132.368 32.0883 134.491 37.7674 134.543C43.1251 134.543 48.467 132.615 52.7026 128.817C53.3348 140.581 63.0281 149.921 74.9552 150C81.119 150 86.719 147.403 90.7755 143.431C94.5633 139.643 96.9814 134.501 97.2869 128.817C106.053 136.693 119.513 136.44 128 128.063C132.362 123.701 134.485 117.912 134.538 112.233C134.538 106.875 132.61 101.533 128.811 97.2974C134.496 96.9919 139.638 94.5738 143.425 90.786C147.403 86.7295 149.995 81.1295 149.995 74.9658L150 74.9552Z"/>
</clipPath></defs>
</svg>
