<svg width="276" height="263" viewBox="0 0 276 263" fill="none" xmlns="http://www.w3.org/2000/svg">
<path d="M182.581 1.04952C180.997 2.12608 179.277 3.31379 177.804 4.5255C152.739 25.1412 145.036 58.6684 156.079 87.1087C141.262 81.0779 123.441 82.8422 109.724 92.9694C109.663 93.0194 109.609 93.0638 109.543 93.1071C108.946 93.5525 108.348 94.0103 107.767 94.4883C107.753 94.4994 107.74 94.5105 107.726 94.5216C107.713 94.5328 107.699 94.5439 107.686 94.555C107.105 95.033 106.54 95.5313 105.988 96.0308C105.927 96.0808 105.873 96.1253 105.818 96.182C93.2354 107.675 88.0713 124.827 91.1298 140.529C65.348 124.212 30.9644 125.302 5.90659 145.912C4.4334 147.124 2.93622 148.582 1.57419 149.928C-0.0993732 151.985 -0.121293 154.699 1.52952 156.706L87.0717 260.708C88.6169 262.587 91.389 263.23 93.7307 261.972L94.5109 261.557L98.3966 258.361C103.357 254.281 107.472 250.001 111.279 245.069C112.337 243.077 113.882 241.127 115.068 239.029C116.373 237.061 117.32 234.934 118.513 232.831C119.349 230.569 120.295 228.442 120.996 226.291C121.361 225.096 121.697 224.14 122.062 222.945C122.762 220.794 123.246 218.379 123.707 216.198C124.191 213.784 124.534 211.474 124.89 209.165C125.848 198.043 124.387 186.432 120.127 175.785C135.062 181.945 152.795 180.06 166.503 169.907C166.55 169.868 166.597 169.83 166.65 169.797C167.253 169.346 167.858 168.883 168.446 168.4C168.459 168.388 168.473 168.377 168.487 168.366C168.5 168.355 168.514 168.344 168.527 168.333C169.115 167.849 169.679 167.351 170.245 166.84C170.292 166.801 170.34 166.763 170.382 166.717C182.989 155.226 188.26 138.19 185.097 122.347C194.727 128.588 205.833 132.255 216.93 133.461C219.258 133.563 221.597 133.666 224.06 133.658C226.282 133.632 228.744 133.623 230.997 133.345C232.24 133.217 233.243 133.072 234.486 132.945C236.732 132.672 239.002 132.154 241.383 131.77C243.676 131.005 245.946 130.487 248.129 129.586C250.423 128.821 252.635 127.682 254.793 127.028C260.367 124.245 265.361 121.032 270.321 116.953L274.207 113.757L274.765 113.071C276.444 111.022 276.354 108.172 274.809 106.293L189.267 2.29126C187.616 0.284202 184.955 -0.223602 182.608 1.02731L182.581 1.04952Z" fill="#FF6EA1"/>
</svg>
