<svg width="316" height="316" viewBox="0 0 316 316" fill="none" xmlns="http://www.w3.org/2000/svg">
<path d="M237.871 24.472C235.862 25.2868 233.688 26.1985 231.771 27.1918C199.227 44.0535 182.821 79.2677 188.309 113.281C188.271 113.253 188.223 113.231 188.185 113.203C187.411 112.674 186.608 112.184 185.811 111.703C185.672 111.62 185.538 111.522 185.391 111.444C177.403 106.726 168.31 104.106 159.034 103.989C168.2 94.8299 174.866 83.4249 178.817 71.4483C179.486 68.8967 180.145 66.3499 180.721 63.6196C181.211 61.1605 181.787 58.4303 182.011 55.8945C182.166 54.4911 182.239 53.3444 182.394 51.941C182.622 49.3909 182.585 46.7642 182.716 44.0499C182.416 41.3323 182.379 38.7056 181.901 36.0805C181.601 33.3628 180.857 30.6611 180.65 28.122C178.886 21.3118 176.513 15.0312 173.178 8.5939L170.563 3.54747L169.932 2.76599C168.062 0.4213 164.896 -0.143753 162.462 1.11734L27.4301 71.0814C24.8176 72.435 23.6321 75.2545 24.4594 78.1396C25.2742 80.1492 26.186 82.3231 27.1793 84.2402C44.041 116.784 79.2551 133.19 113.269 127.702C110.641 131.579 108.547 135.798 107.021 140.237C106.857 140.703 106.713 141.183 106.563 141.654C106.414 142.148 106.236 142.634 106.102 143.133C104.798 147.635 104.065 152.294 103.986 156.972C79.3641 132.872 41.1246 125.971 8.59066 142.828C6.67358 143.821 4.67993 145.081 2.85049 146.243C0.510668 148.123 -0.146928 151.11 1.20668 153.723L71.1708 288.755C72.4319 291.189 75.3438 292.553 78.2241 291.716L79.1905 291.442L84.237 288.827C90.6742 285.492 96.2343 281.729 101.603 277.183C103.237 275.228 105.403 273.45 107.215 271.402C109.119 269.533 110.665 267.409 112.477 265.362C113.93 263.059 115.476 260.935 116.765 258.73C117.448 257.494 118.049 256.515 118.732 255.279C120.016 253.064 121.115 250.516 122.143 248.219C123.247 245.656 124.177 243.196 125.102 240.725C128.782 228.663 129.913 215.501 127.708 202.733C135.362 207.981 144.297 211.1 153.544 211.852C153.691 211.859 153.837 211.866 153.984 211.874C154.937 211.941 155.884 211.998 156.836 212.017C156.883 212.017 156.931 212.016 156.973 212.03C132.873 236.651 125.973 274.891 142.83 307.425C143.823 309.342 145.083 311.336 146.245 313.165C148.125 315.505 151.112 316.163 153.724 314.809L288.756 244.845C291.19 243.584 292.554 240.672 291.718 237.791L291.443 236.825L288.829 231.779C285.493 225.341 281.73 219.781 277.184 214.412C275.229 212.779 273.451 210.613 271.404 208.801C269.535 206.896 267.411 205.351 265.364 203.539C263.061 202.085 260.937 200.54 258.731 199.251C257.496 198.568 256.516 197.966 255.281 197.284C253.066 196 250.517 194.9 248.226 193.882C245.663 192.778 243.202 191.848 240.732 190.923C228.669 187.243 215.507 186.112 202.739 188.317C202.767 188.279 202.79 188.231 202.818 188.193C203.142 187.715 203.448 187.223 203.753 186.731C204.086 186.201 204.434 185.675 204.748 185.131C204.896 184.887 205.015 184.635 205.158 184.382C205.588 183.623 206.012 182.855 206.394 182.073C206.481 181.896 206.554 181.715 206.642 181.539C207.046 180.709 207.441 179.861 207.807 179.004C207.922 178.718 208.036 178.432 208.15 178.147C208.447 177.409 208.744 176.671 209.008 175.914C209.19 175.391 209.352 174.854 209.52 174.326C209.683 173.812 209.855 173.294 210.004 172.776C210.23 171.991 210.417 171.203 210.595 170.419C210.662 170.134 210.743 169.854 210.805 169.559C211.01 168.643 211.171 167.713 211.319 166.778C211.345 166.598 211.385 166.422 211.411 166.242C211.54 165.364 211.646 164.487 211.728 163.61C211.752 163.335 211.796 163.074 211.82 162.799C211.873 162.164 211.906 161.515 211.93 160.871C211.96 160.307 211.994 159.753 212.01 159.184C212.009 159.137 212.013 159.076 212.021 159.023C221.181 168.189 232.586 174.855 244.562 178.806C247.114 179.474 249.661 180.134 252.391 180.71C254.85 181.2 257.58 181.776 260.126 181.995C261.529 182.15 262.676 182.223 264.079 182.378C266.629 182.607 269.256 182.569 271.97 182.7C274.688 182.401 277.315 182.363 279.94 181.885C282.652 181.576 285.359 180.841 287.898 180.634C294.708 178.87 300.989 176.497 307.426 173.162L312.473 170.547L313.254 169.916C315.599 168.046 316.164 164.88 314.903 162.446L244.939 27.4141C243.585 24.8016 240.766 23.6161 237.88 24.4435L237.871 24.472Z" fill="#FFC049"/>
</svg>
