<svg width="69" height="49" viewBox="0 0 69 49" fill="none" xmlns="http://www.w3.org/2000/svg">
<g clip-path="url(#clip0_1713_9456)">
<rect width="69" height="49" rx="8" fill="#FFB8FF"/>
<circle cx="18.75" cy="28.4998" r="4.5" stroke="#6624CE" stroke-width="4.5"/>
<circle cx="34.5" cy="24" r="4.5" stroke="#6624CE" stroke-width="4.5"/>
<circle cx="50.2499" cy="12.75" r="4.5" stroke="#6624CE" stroke-width="4.5"/>
<path d="M18.75 39.75C21.2353 39.75 23.25 41.7647 23.25 44.25V48.75H14.25V44.25C14.25 41.7647 16.2647 39.75 18.75 39.75Z" fill="white" stroke="white" stroke-width="4.5"/>
<path d="M34.5 35.25C36.9853 35.25 39 37.2647 39 39.75V48.75H30V39.75C30 37.2647 32.0147 35.25 34.5 35.25Z" fill="white" stroke="white" stroke-width="4.5"/>
<path d="M50.2499 23.9998C52.7352 23.9998 54.7499 26.0145 54.7499 28.4998V48.7498H45.7499V28.4998C45.7499 26.0145 47.7647 23.9998 50.2499 23.9998Z" fill="white" stroke="white" stroke-width="4.5"/>
</g>
<defs>
<clipPath id="clip0_1713_9456">
<rect width="69" height="49" rx="8" fill="white"/>
</clipPath>
</defs>
</svg>
