<svg xmlns="http://www.w3.org/2000/svg" width="31" height="30" viewBox="0 0 31 30" fill="none">
  <path d="M12.9007 17.2737L17.6285 14.3066L12.9007 11.3396V17.2737ZM23.4311 9.5297C23.5495 9.99453 23.6315 10.6176 23.6862 11.4088C23.7499 12.2 23.7773 12.8824 23.7773 13.4759L23.8319 14.3066C23.8319 16.4726 23.6862 18.0649 23.4311 19.0835C23.2034 19.9737 22.675 20.5473 21.8552 20.7945C21.427 20.9231 20.6436 21.0121 19.4412 21.0715C18.257 21.1407 17.173 21.1704 16.171 21.1704L14.7226 21.2297C10.9058 21.2297 8.52826 21.0715 7.59 20.7945C6.77016 20.5473 6.24182 19.9737 6.01409 19.0835C5.89567 18.6187 5.81369 17.9956 5.75903 17.2044C5.69527 16.4132 5.66794 15.7308 5.66794 15.1374L5.61328 14.3066C5.61328 12.1407 5.75903 10.5484 6.01409 9.5297C6.24182 8.63959 6.77016 8.06596 7.59 7.81871C8.01814 7.69014 8.80154 7.60113 10.004 7.54179C11.1882 7.47256 12.2722 7.44289 13.2742 7.44289L14.7226 7.38354C18.5394 7.38354 20.9169 7.54179 21.8552 7.81871C22.675 8.06596 23.2034 8.63959 23.4311 9.5297Z" fill="#B0C4EC"/>
</svg>
